<?xml version="1.0" standalone="no"?>
<!DOCTYPE svg PUBLIC "-//W3C//DTD SVG 20010904//EN"
 "http://www.w3.org/TR/2001/REC-SVG-20010904/DTD/svg10.dtd">
<svg version="1.0" xmlns="http://www.w3.org/2000/svg"
 width="700.000000pt" height="700.000000pt" viewBox="0 0 700.000000 700.000000"
 preserveAspectRatio="xMidYMid meet">
<metadata>
Created by potrace 1.14, written by Peter Selinger 2001-2017
</metadata>
<g transform="translate(0.000000,700.000000) scale(0.100000,-0.100000)"
fill="#000000" stroke="none">
<path d="M3498 6775 c-1 -1 -26 -5 -55 -8 -159 -16 -327 -175 -359 -337 -51
-265 127 -506 391 -527 339 -27 575 320 426 626 -61 127 -181 215 -321 237
-19 3 -45 7 -57 9 -12 2 -23 2 -25 0z"/>
<path d="M2445 6534 c-304 -46 -581 -149 -829 -308 -166 -106 -383 -304 -508
-462 -173 -219 -316 -506 -383 -771 -13 -54 -27 -116 -30 -138 -3 -22 -8 -45
-10 -52 -11 -33 -20 -198 -19 -358 1 -326 70 -611 219 -906 62 -124 140 -249
156 -249 5 0 7 -4 4 -10 -3 -5 -2 -10 4 -10 5 0 12 -9 16 -19 3 -11 23 -38 43
-60 20 -22 45 -51 54 -65 10 -13 26 -23 35 -22 10 2 12 1 6 -1 -22 -8 -14 -23
9 -20 18 2 23 -3 21 -20 -2 -16 3 -23 14 -23 9 0 14 -3 10 -6 -5 -5 29 -46 36
-43 1 1 29 -26 62 -59 l61 -60 28 24 c15 13 32 22 37 18 13 -8 38 26 32 43 -3
8 0 13 7 11 7 -2 14 2 16 7 5 15 -14 41 -23 31 -4 -5 -2 -11 5 -13 16 -6 16
-24 0 -20 -7 1 -12 -6 -12 -16 1 -10 -3 -16 -10 -14 -6 3 -9 11 -7 18 2 8 4
26 4 42 1 21 4 26 18 22 11 -4 22 1 29 12 10 16 11 16 7 -3 -2 -12 -1 -28 4
-36 5 -10 0 -27 -17 -51 -14 -20 -21 -37 -16 -37 5 0 17 16 28 35 10 19 22 35
26 35 4 0 12 8 17 19 8 15 7 18 -6 17 -9 0 -18 4 -20 10 -5 16 32 10 50 -8 9
-9 13 -19 9 -24 -4 -5 1 -2 11 6 22 17 41 50 29 50 -6 0 -12 -10 -15 -21 -6
-22 -6 -22 -36 3 -18 16 -39 24 -55 23 -28 -3 -31 2 -16 25 7 11 10 12 10 2 0
-8 6 -12 13 -9 6 2 27 -7 46 -21 19 -14 31 -21 28 -15 -4 6 0 16 8 23 12 10
18 10 30 0 17 -14 28 -8 31 16 1 9 0 13 -3 10 -4 -3 -13 4 -21 16 -14 19 -14
23 7 39 12 10 29 15 36 12 22 -8 18 11 -5 32 -11 10 -20 15 -20 12 0 -3 -21
16 -46 43 -25 27 -55 52 -65 55 -10 4 -18 9 -16 13 3 10 -75 87 -85 84 -5 -1
-7 2 -3 8 5 8 -46 83 -75 110 -3 3 -21 30 -40 60 -19 30 -37 57 -40 60 -3 3
-29 52 -57 110 -77 157 -134 333 -149 455 -3 22 -9 58 -14 79 -9 43 -7 396 4
436 3 14 9 44 12 68 8 62 56 224 92 312 151 372 435 679 793 857 187 93 400
152 592 165 l38 2 -7 131 c-3 71 -8 144 -9 160 -2 17 -3 56 -4 88 l-1 57 -42
-1 c-24 -1 -83 -7 -133 -15z m-1035 -3048 c0 -2 -7 -7 -16 -10 -8 -3 -12 -2
-9 4 6 10 25 14 25 6z m33 -34 c15 -16 15 -19 2 -19 -8 0 -13 3 -10 5 3 3 0
11 -6 19 -17 20 -5 16 14 -5z m-38 -41 c0 -16 -3 -27 -7 -25 -6 4 -5 29 1 52
4 11 7 -3 6 -27z m-99 7 c4 -7 4 -10 -1 -6 -4 4 -15 2 -24 -5 -14 -11 -14 -10
-2 6 16 20 18 21 27 5z m-16 -42 c0 -2 -8 -10 -17 -17 -16 -13 -17 -12 -4 4
13 16 21 21 21 13z m161 -23 c-12 -8 -25 -12 -28 -9 -4 3 -1 6 6 6 7 0 10 4 7
8 -2 4 5 9 16 9 21 2 21 2 -1 -14z m-85 -8 c-1 -8 -5 -17 -8 -21 -5 -4 -4 16
1 34 3 9 9 -1 7 -13z m162 -10 c-3 -3 -9 2 -12 12 -6 14 -5 15 5 6 7 -7 10
-15 7 -18z m-278 11 c0 -3 -4 -8 -10 -11 -5 -3 -10 -1 -10 4 0 6 5 11 10 11 6
0 10 -2 10 -4z m160 0 c0 -2 -7 -7 -16 -10 -8 -3 -12 -2 -9 4 6 10 25 14 25 6z
m106 -25 c9 -12 13 -25 10 -28 -3 -3 -8 2 -12 11 -3 9 -10 13 -15 10 -5 -3 -6
1 -4 8 3 8 -2 14 -13 15 -11 1 -18 -6 -19 -18 -1 -11 2 -17 6 -14 5 2 20 -4
34 -15 21 -16 27 -17 36 -6 6 7 10 20 8 27 -2 8 -2 11 0 6 3 -4 8 -5 13 -2 4
3 7 -3 6 -11 0 -10 8 -18 19 -20 11 -2 40 -24 65 -51 25 -26 48 -47 52 -46 3
1 12 -5 20 -14 11 -14 11 -15 0 -9 -9 5 -23 -1 -40 -17 -20 -19 -31 -24 -42
-17 -8 5 -12 10 -7 11 4 1 12 3 17 4 6 1 15 3 20 4 7 1 7 7 2 19 -5 9 -7 24
-5 32 2 8 -2 4 -10 -9 -8 -14 -17 -19 -21 -13 -3 6 -2 13 4 17 17 11 2 22 -26
20 -15 0 -29 -6 -32 -13 -2 -7 2 -10 11 -7 7 3 20 -1 27 -10 8 -9 8 -15 2 -15
-6 0 -14 5 -17 10 -5 8 -11 8 -19 1 -9 -7 -16 -7 -25 2 -7 6 -12 8 -11 2 2 -5
2 -12 0 -15 -1 -3 -3 -18 -5 -33 -3 -21 0 -27 10 -23 7 2 18 -1 25 -8 13 -17
-12 -30 -28 -14 -13 13 -34 -24 -26 -46 4 -12 1 -15 -12 -14 -11 2 -20 -1 -21
-6 -1 -5 -7 -13 -15 -17 -11 -7 -10 -11 2 -19 9 -5 10 -10 3 -10 -12 0 -12
-24 0 -36 4 -4 7 -11 7 -15 0 -11 -41 -2 -54 12 -8 9 -6 10 10 7 13 -3 21 0
21 9 0 9 -7 11 -21 8 -19 -5 -19 -5 -3 5 9 6 15 15 12 20 -3 5 -1 11 5 15 18
11 10 25 -12 21 -13 -3 -24 -5 -25 -7 -2 -1 -8 -2 -13 -3 -15 -2 -30 -28 -23
-40 4 -5 0 -6 -8 -1 -11 7 -12 6 -2 -7 7 -8 10 -18 6 -21 -3 -4 2 -9 11 -13 9
-3 14 -10 11 -14 -3 -5 0 -12 6 -16 7 -4 9 -3 5 4 -8 13 10 26 25 17 7 -5 4
-14 -7 -26 -17 -19 -18 -19 -34 6 -9 14 -19 23 -21 20 -3 -3 -19 9 -35 27 -16
17 -24 28 -17 24 6 -3 14 -2 18 4 6 9 -8 14 -28 11 -5 -1 -6 3 -3 8 3 5 -2 15
-11 22 -14 12 -15 11 -9 -11 5 -19 2 -17 -11 8 -9 17 -20 32 -25 32 -4 0 -8 5
-8 11 0 8 5 7 15 -1 13 -11 21 -8 50 20 32 31 37 50 14 50 -6 0 -7 -4 -4 -10
4 -6 -1 -7 -11 -3 -11 4 -13 8 -6 11 7 2 9 8 6 14 -4 6 2 6 14 -1 12 -6 24
-16 27 -22 10 -15 34 8 30 29 -1 9 0 11 2 5 6 -18 23 -16 23 1 0 8 -10 22 -22
30 -12 9 -18 19 -14 23 4 4 12 0 17 -10 6 -9 15 -15 21 -11 7 4 5 10 -3 16
-11 8 -10 9 4 4 20 -6 101 60 91 75 -8 14 -26 11 -18 -3 4 -7 -2 -5 -14 6 -18
16 -22 34 -13 63 4 11 45 -8 57 -26z m-226 15 c0 -2 -8 -10 -17 -17 -16 -13
-17 -12 -4 4 13 16 21 21 21 13z m-103 -31 c0 -8 -4 -12 -9 -9 -5 3 -6 10 -3
15 9 13 12 11 12 -6z m139 -17 c-1 -13 3 -27 9 -31 6 -5 5 -7 -4 -5 -8 2 -15
18 -16 36 -1 17 2 29 5 27 4 -3 7 -15 6 -27z m117 -1 c4 3 7 2 7 -3 0 -5 -9
-15 -20 -22 -12 -7 -20 -8 -20 -2 0 5 5 10 10 10 7 0 7 7 0 23 -10 20 -10 20
3 5 8 -10 17 -15 20 -11z m-38 3 c3 -6 -1 -7 -9 -4 -18 7 -21 14 -7 14 6 0 13
-4 16 -10z m55 -45 c-7 -8 -16 -12 -21 -9 -5 3 -9 0 -9 -5 0 -6 -5 -11 -11
-11 -8 0 -8 5 1 15 7 8 16 13 20 10 4 -3 11 2 14 11 4 9 9 14 13 11 3 -4 0
-13 -7 -22z m-63 -17 c-3 -7 -5 -2 -5 12 0 14 2 19 5 13 2 -7 2 -19 0 -25z
m-267 18 c0 -3 -4 -8 -10 -11 -5 -3 -10 -1 -10 4 0 6 5 11 10 11 6 0 10 -2 10
-4z m195 -16 c-3 -5 -12 -10 -18 -10 -7 0 -6 4 3 10 19 12 23 12 15 0z m36
-17 c-6 -11 -11 -13 -11 -5 0 7 -5 10 -12 6 -7 -4 -8 -3 -4 5 4 6 12 9 17 6 5
-4 9 -1 9 6 0 7 3 10 6 6 3 -3 1 -14 -5 -24z m-114 0 c0 -9 -4 -10 -14 -2 -7
6 -13 12 -13 14 0 1 6 2 13 2 8 0 14 -6 14 -14z m30 -7 c-6 -12 -10 -25 -9
-29 1 -5 -2 -6 -8 -2 -8 5 -8 11 0 20 7 8 9 18 6 23 -3 5 1 9 9 9 11 0 12 -4
2 -21z m-70 -1 c0 -8 -4 -12 -9 -9 -5 3 -6 10 -3 15 9 13 12 11 12 -6z m118
-5 c3 -5 1 -10 -4 -10 -6 0 -11 5 -11 10 0 6 2 10 4 10 3 0 8 -4 11 -10z m315
4 c0 -8 -19 -13 -24 -6 -3 5 1 9 9 9 8 0 15 -2 15 -3z m-441 -28 c9 -11 9 -16
-1 -22 -7 -4 -10 -4 -6 1 4 4 3 14 -3 22 -6 7 -9 13 -6 13 2 0 10 -6 16 -14z
m102 -23 c-11 -16 -11 -15 -5 6 4 17 3 21 -6 16 -9 -6 -11 -4 -5 4 5 9 11 9
17 3 7 -7 6 -16 -1 -29z m67 2 c0 -14 -5 -22 -10 -19 -5 3 -7 12 -4 20 3 7 1
16 -4 19 -6 4 -10 -2 -10 -11 0 -10 -3 -15 -6 -11 -4 3 -4 13 -1 21 9 23 35 8
35 -19z m260 7 c9 9 12 9 12 1 0 -7 -4 -14 -10 -18 -5 -3 -7 -12 -4 -20 4 -8
10 -12 15 -9 10 6 62 -46 54 -54 -3 -3 -14 4 -26 16 -11 13 -24 20 -30 17 -5
-4 -9 0 -9 7 0 10 -3 9 -9 -2 -13 -20 -2 -34 15 -19 8 7 14 7 14 1 0 -5 -7
-15 -15 -22 -10 -9 -15 -9 -15 -1 0 6 -7 11 -16 11 -10 0 -14 6 -11 14 6 14
-25 50 -35 41 -2 -3 -4 5 -3 18 1 12 7 22 12 22 6 0 15 4 19 8 5 4 13 1 20 -7
8 -12 13 -13 22 -4z m-373 -2 c3 -5 1 -10 -4 -10 -6 0 -11 5 -11 10 0 6 2 10
4 10 3 0 8 -4 11 -10z m-60 -38 c-3 -3 -11 0 -18 7 -9 10 -8 11 6 5 10 -3 15
-9 12 -12z m50 -2 c13 -6 15 -9 5 -9 -8 0 -22 4 -30 9 -18 12 -2 12 25 0z m39
-12 c-6 -20 -5 -21 10 -9 20 17 21 5 1 -15 -20 -20 -38 -9 -25 15 5 10 6 21 3
25 -3 3 -1 6 6 6 8 0 10 -7 5 -22z m166 -103 c-5 -7 -6 -16 -2 -20 4 -5 1 -5
-5 -1 -12 6 -18 -5 -14 -26 0 -5 -4 -8 -10 -8 -5 0 -7 -4 -4 -10 3 -5 0 -7 -8
-4 -15 5 -16 58 -3 72 4 3 5 -6 2 -22 -3 -16 -3 -27 -1 -25 2 2 4 9 5 14 4 23
20 42 34 42 11 0 13 -4 6 -12z m120 0 c7 -9 8 -15 2 -15 -5 0 -12 7 -16 15 -3
8 -4 15 -2 15 2 0 9 -7 16 -15z"/>
<path d="M1540 3275 c-7 -9 -15 -13 -18 -11 -2 3 -20 -10 -39 -29 -18 -18 -39
-35 -46 -38 -7 -2 -8 -8 -3 -13 5 -5 11 -4 13 4 4 10 9 9 24 -4 20 -18 27 -6
9 12 -18 18 14 38 39 25 28 -15 30 -14 27 13 -4 30 8 53 18 37 4 -6 2 -11 -4
-11 -6 0 -8 -5 -5 -10 5 -8 11 -8 20 0 10 8 15 8 21 -1 5 -8 3 -9 -6 -4 -9 6
-11 4 -5 -5 5 -8 4 -11 -1 -7 -6 3 -16 2 -24 -4 -13 -7 -13 -9 0 -9 9 0 2 -8
-14 -19 -17 -11 -34 -17 -39 -14 -5 3 -7 0 -5 -8 3 -8 12 -12 19 -11 8 2 10 0
6 -5 -5 -4 -14 -8 -19 -8 -6 0 -13 -5 -15 -12 -3 -8 3 -11 17 -8 17 3 20 1 10
-9 -8 -11 -8 -15 2 -19 9 -4 9 -6 1 -6 -6 -1 -15 4 -18 9 -5 8 -12 7 -23 -2
-16 -12 -16 -11 -2 7 11 16 11 17 0 8 -19 -17 -33 -16 -27 1 4 10 1 13 -9 9
-11 -4 -12 -9 -4 -18 8 -9 7 -15 -2 -19 -7 -3 -4 -4 8 -1 12 3 27 -1 34 -10 8
-10 9 -15 1 -15 -6 0 -11 5 -11 10 0 6 -5 10 -11 10 -8 0 -7 -6 2 -17 12 -14
12 -16 0 -8 -10 6 -12 4 -6 -5 6 -9 4 -11 -5 -5 -8 5 -18 1 -27 -10 -7 -11
-13 -13 -13 -7 0 7 -5 12 -11 12 -5 0 -8 -4 -5 -8 3 -5 -1 -9 -9 -10 -8 -1
-22 -3 -30 -4 -8 -1 -15 -5 -15 -10 0 -5 -5 -6 -11 -2 -8 4 -7 9 2 15 8 5 12
9 9 10 -3 0 -15 2 -27 5 -12 2 -25 -2 -29 -9 -4 -6 -3 -9 1 -4 5 4 19 -3 32
-15 13 -12 23 -17 23 -12 0 5 4 2 10 -6 5 -9 5 -19 -1 -26 -6 -7 -2 -17 10
-28 17 -15 19 -15 17 -2 -1 8 -5 18 -9 22 -3 4 3 20 14 36 12 16 24 27 27 24
3 -3 11 -1 19 5 7 6 13 8 13 4 0 -4 7 -2 15 5 12 10 15 10 15 0 0 -10 3 -10
15 0 8 6 18 9 23 6 5 -3 8 5 7 19 -2 13 3 26 10 28 7 3 11 17 9 33 -1 16 1 33
6 39 8 9 10 16 10 31 0 4 8 0 17 -7 12 -10 15 -11 9 -1 -18 30 36 50 74 28 8
-5 2 5 -14 22 -16 17 -33 29 -38 26 -4 -3 -8 0 -8 7 0 7 -3 9 -7 6 -3 -4 -12
-2 -18 3 -9 7 -16 6 -25 -5z m79 -28 c8 -10 7 -14 -2 -14 -8 0 -14 6 -14 14 0
7 1 13 2 13 2 0 8 -6 14 -13z m-89 -7 c0 -5 -2 -10 -4 -10 -3 0 -8 5 -11 10
-3 6 -1 10 4 10 6 0 11 -4 11 -10z m-24 -153 c-3 -19 -16 -37 -29 -37 -6 0 -3
6 8 13 13 10 15 16 6 21 -6 4 -9 12 -5 17 7 12 23 2 20 -14z m-128 -77 c-7
-10 -14 -17 -17 -15 -4 4 18 35 25 35 2 0 -1 -9 -8 -20z"/>
<path d="M1485 3211 c-3 -5 0 -13 6 -17 8 -4 9 -3 5 4 -4 7 -2 12 3 12 6 0 11
-5 11 -11 0 -5 5 -7 11 -3 8 4 7 9 -2 15 -18 11 -26 11 -34 0z"/>
<path d="M1417 3164 c3 -8 9 -11 14 -8 5 3 9 3 9 1 0 -6 -69 -48 -73 -45 -4 4
-57 -46 -57 -54 0 -5 4 -7 9 -3 6 3 16 -1 23 -8 11 -12 16 -12 35 0 12 8 26
12 30 10 5 -3 16 1 26 8 14 10 15 14 4 18 -18 7 -15 46 4 58 21 13 32 11 25
-6 -8 -23 0 -18 18 10 9 14 13 25 9 24 -4 -1 -10 0 -13 1 -3 1 -19 3 -37 5
-23 2 -30 -1 -26 -11z m-13 -61 c-10 -7 -15 -14 -11 -14 4 -1 12 -2 17 -3 16
-2 7 -20 -11 -21 -14 -1 -16 6 -10 46 1 3 8 6 17 6 14 0 14 -2 -2 -14z m-34
-23 c0 -5 -2 -10 -4 -10 -3 0 -8 5 -11 10 -3 6 -1 10 4 10 6 0 11 -4 11 -10z
m-10 -20 c8 -5 11 -10 5 -10 -5 0 -17 5 -25 10 -8 5 -10 10 -5 10 6 0 17 -5
25 -10z"/>
<path d="M1591 3161 c-1 -7 -7 -11 -16 -7 -12 4 -13 2 -6 -13 16 -29 38 -44
46 -30 4 6 2 15 -5 19 -6 4 -11 10 -10 14 1 4 -1 12 -3 19 -4 9 -6 8 -6 -2z
m6 -18 c-4 -3 -1 -13 6 -22 11 -14 10 -14 -5 -2 -16 12 -16 31 -1 31 4 0 3 -3
0 -7z"/>
<path d="M4495 5458 c-136 -18 -173 -24 -230 -40 -22 -6 -44 -12 -50 -13 -5
-1 -12 -3 -15 -4 -3 -1 -16 -4 -29 -7 -32 -6 -53 -24 -47 -40 3 -7 -2 -15 -10
-18 -11 -4 -13 0 -8 19 4 15 2 25 -5 25 -6 0 -8 -8 -4 -17 6 -16 5 -17 -12 -3
-15 12 -17 12 -10 1 6 -11 4 -13 -8 -8 -11 4 -14 2 -10 -9 4 -10 0 -12 -11 -8
-9 3 -13 11 -9 18 4 6 -1 5 -10 -3 -18 -15 -23 -46 -8 -56 5 -3 23 9 40 27 17
18 31 28 31 22 0 -6 -7 -17 -15 -24 -9 -7 -13 -20 -10 -28 3 -9 0 -12 -9 -9
-18 7 -50 -27 -43 -45 4 -9 6 -7 6 4 1 15 5 16 25 6 26 -11 22 -22 -19 -46
-11 -6 -15 -12 -8 -12 6 0 25 12 42 26 35 29 42 20 11 -14 -23 -24 -27 -40 -6
-23 11 9 17 6 31 -15 16 -24 16 -27 -1 -45 -9 -10 -22 -19 -27 -19 -6 0 -2 10
9 21 14 16 16 23 6 26 -6 3 -9 10 -6 15 5 7 2 8 -5 3 -9 -5 -9 -11 -3 -17 7
-7 6 -15 -4 -25 -13 -14 -11 -33 4 -33 4 0 20 11 36 25 16 14 32 25 36 25 12
0 5 -63 -7 -67 -8 -3 -10 5 -7 22 4 24 4 25 -14 8 -13 -13 -15 -20 -7 -25 15
-9 13 -36 -4 -67 -10 -18 -10 -25 0 -35 9 -8 11 -7 6 6 -3 9 0 24 8 34 7 10
10 25 7 34 -3 8 6 4 21 -10 24 -23 25 -26 10 -43 -13 -13 -14 -20 -5 -29 7 -7
12 -8 12 -2 0 5 5 2 10 -6 7 -10 12 -12 18 -4 4 6 15 10 25 8 9 -1 17 2 17 6
0 5 9 7 20 5 11 -2 22 0 25 5 3 5 12 7 20 3 8 -3 15 0 15 7 0 7 6 10 14 7 8
-3 17 1 20 9 6 17 1 18 -25 3 -18 -9 -19 -8 -10 9 6 11 7 22 4 26 -14 13 -20
5 -18 -22 1 -19 -2 -29 -11 -29 -15 0 -19 13 -6 20 4 2 1 2 -6 0 -8 -1 -10 2
-6 9 5 7 3 8 -6 3 -9 -5 -11 -4 -6 3 5 8 1 10 -11 6 -15 -5 -16 -4 -3 5 13 9
13 11 0 11 -13 0 -13 1 0 11 12 8 9 9 -10 4 l-25 -6 25 16 c18 12 19 15 5 10
-11 -3 -16 -3 -12 1 4 4 1 14 -6 22 -10 13 -9 14 2 7 10 -5 12 -4 7 4 -4 6
-12 8 -18 5 -7 -4 -8 -2 -4 5 4 6 11 9 16 6 5 -3 11 -1 15 5 3 5 1 10 -4 10
-6 0 -9 10 -7 23 2 12 -4 33 -13 47 -12 18 -13 22 -2 16 10 -6 12 -5 7 2 -10
17 -29 15 -23 -3 5 -12 2 -12 -19 -3 -27 13 -26 17 6 23 26 5 40 15 21 15 -7
0 -9 5 -5 11 5 8 9 8 14 -1 5 -9 9 -9 14 -1 4 6 2 12 -3 12 -6 1 -15 2 -20 3
-5 0 -13 5 -18 10 -5 6 -2 6 7 1 13 -8 13 -7 0 10 -13 17 -13 18 0 10 13 -8
13 -6 2 7 -8 10 -21 14 -30 11 -13 -4 -12 -2 3 11 15 12 15 14 4 10 -10 -3
-20 -1 -24 5 -3 7 0 8 9 5 10 -4 16 -1 16 7 1 10 5 8 14 -4 8 -10 17 -14 20
-8 3 5 1 11 -6 13 -8 3 -6 7 5 11 10 4 16 2 14 -5 -1 -7 7 -13 18 -15 14 -3
16 -1 7 5 -10 7 -10 11 1 21 12 9 14 6 11 -20 -3 -27 -2 -30 11 -19 8 7 21 10
29 7 19 -7 38 16 30 36 -3 8 -1 17 3 20 8 5 10 -39 3 -53 -1 -3 -2 -9 -1 -13
1 -5 -4 -5 -10 -1 -9 5 -10 2 -6 -12 7 -19 7 -19 -7 0 -16 19 -46 16 -46 -5 0
-8 4 -8 13 -1 10 9 17 4 31 -18 12 -21 13 -28 4 -25 -9 4 -14 -2 -14 -15 0
-13 5 -18 16 -15 8 3 21 -4 27 -14 10 -16 9 -20 -3 -25 -9 -3 -20 -4 -25 0
-13 8 -11 -10 3 -24 14 -14 32 -16 24 -3 -6 9 22 26 36 23 4 -1 6 7 5 18 -1
13 -6 19 -15 15 -7 -2 -11 -1 -8 4 3 5 -1 11 -9 15 -8 3 -15 11 -14 18 0 10 2
10 6 1 2 -7 9 -13 14 -13 6 0 7 5 3 12 -4 7 -3 8 5 4 6 -4 9 -11 6 -16 -3 -4
0 -10 7 -12 6 -2 13 -13 14 -23 3 -22 -14 -47 -26 -40 -5 3 -11 -4 -15 -15 -3
-11 -11 -19 -17 -17 -6 1 -12 -3 -14 -8 -2 -6 5 -11 16 -12 11 -1 20 4 20 12
0 16 27 28 35 15 4 -6 0 -19 -8 -30 -8 -12 -13 -40 -11 -72 1 -34 -1 -46 -5
-33 -5 11 -6 27 -3 35 5 12 4 12 -9 0 -13 -12 -14 -18 -3 -38 7 -14 10 -32 7
-41 -4 -13 -2 -13 7 2 6 9 16 17 23 17 7 0 6 -4 -3 -10 -11 -8 -9 -9 10 -6 14
3 33 5 43 5 12 1 16 5 11 14 -6 9 -3 8 8 -1 14 -11 20 -10 39 9 17 17 21 18
16 5 -6 -15 -2 -16 26 -12 38 7 291 8 327 2 14 -3 45 -7 70 -10 166 -19 391
-91 550 -178 202 -110 435 -315 561 -493 147 -207 252 -463 284 -690 4 -27 10
-59 12 -70 2 -11 6 -86 7 -167 4 -172 -11 -293 -55 -457 -3 -11 42 -29 181
-71 102 -31 197 -60 212 -63 25 -7 26 -5 44 71 10 42 18 79 19 82 23 94 39
269 39 420 0 222 -33 426 -104 640 -166 508 -540 947 -1019 1198 -117 61 -332
143 -440 167 -111 25 -183 38 -271 49 -114 15 -359 17 -455 4z m0 -17 c-9 -8
-36 -10 -30 -2 2 4 11 8 20 8 8 0 13 -3 10 -6z m-88 -16 c0 -8 -4 -15 -9 -15
-10 0 -11 14 -1 23 9 10 10 9 10 -8z m-110 -16 c-9 -6 -15 -14 -12 -20 4 -5 1
-9 -4 -9 -15 0 -14 27 2 33 22 10 32 7 14 -4z m116 -31 c-2 -5 -10 -8 -18 -8
-8 0 -16 3 -18 8 -3 4 5 7 18 7 13 0 21 -3 18 -7z m93 0 c4 -7 4 -10 -1 -6 -4
4 -15 2 -24 -5 -14 -11 -14 -10 -2 6 16 20 18 21 27 5z m41 -3 c0 -8 -4 -12
-9 -9 -5 3 -6 10 -3 15 9 13 12 11 12 -6z m-402 -15 c3 -5 1 -10 -4 -10 -6 0
-11 5 -11 10 0 6 2 10 4 10 3 0 8 -4 11 -10z m222 4 c-3 -3 -12 -4 -19 -1 -8
3 -5 6 6 6 11 1 17 -2 13 -5z m83 -9 c-5 -7 -8 -14 -5 -17 3 -2 -2 -5 -10 -5
-10 0 -12 4 -5 12 5 7 8 14 5 17 -3 2 2 5 10 5 10 0 12 -4 5 -12z m-104 -20
c-7 -20 4 -19 19 2 9 13 14 13 20 3 5 -8 4 -11 -2 -7 -6 4 -13 0 -16 -7 -3 -8
-15 -14 -26 -13 -15 1 -18 5 -10 19 12 22 23 24 15 3z m144 11 c0 -2 -7 -7
-16 -10 -8 -3 -12 -2 -9 4 6 10 25 14 25 6z m-440 -21 c0 -1 -7 -8 -15 -15
-13 -10 -15 -9 -15 8 0 15 5 20 15 16 8 -4 15 -7 15 -9z m125 -5 c-1 -8 0 -19
4 -25 12 -21 8 -33 -9 -30 -23 5 -34 -22 -14 -33 11 -6 7 -9 -15 -9 -27 0 -29
2 -18 21 6 12 10 25 9 29 -1 5 1 6 5 4 5 -3 14 1 21 9 10 11 10 14 0 14 -9 0
-9 3 2 11 13 9 12 10 -3 5 -11 -3 -16 -2 -12 4 3 6 1 10 -4 10 -6 0 -11 -5
-11 -11 0 -6 -9 -9 -19 -6 -14 3 -18 1 -14 -9 4 -10 10 -11 23 -4 13 7 21 7
25 0 5 -9 -1 -12 -21 -9 -4 0 -11 -5 -15 -13 -7 -10 -9 -10 -9 0 0 7 -4 11 -9
7 -5 -3 -13 -1 -16 5 -7 12 13 42 24 36 4 -3 13 -1 20 4 22 13 59 7 56 -10z
m230 0 c-3 -5 0 -10 7 -11 10 0 10 -2 0 -6 -6 -2 -10 -9 -7 -13 3 -5 0 -12 -7
-16 -7 -4 -10 -4 -6 1 4 4 0 14 -10 22 -16 12 -16 13 1 7 10 -4 17 -3 16 2 -2
14 0 24 7 24 3 0 2 -4 -1 -10z m139 -18 c3 -5 -1 -9 -9 -9 -8 0 -12 4 -9 9 3
4 7 8 9 8 2 0 6 -4 9 -8z m-94 -43 c0 -5 -5 -9 -12 -9 -6 0 -8 3 -5 7 4 3 1
13 -6 22 -11 14 -10 14 6 2 9 -7 17 -17 17 -22z m-338 10 c15 0 15 -3 6 -19
-7 -11 -15 -15 -19 -9 -3 5 -10 9 -15 8 -15 -5 -55 12 -49 20 2 5 17 6 32 4
16 -2 36 -4 45 -4z m329 -40 l24 -20 -30 17 c-39 24 -40 24 -28 24 6 0 21 -9
34 -21z m60 4 c13 -16 12 -17 -3 -4 -10 7 -18 15 -18 17 0 8 8 3 21 -13z m-94
-34 c0 -21 -3 -26 -9 -16 -4 9 -5 22 -2 31 9 23 11 20 11 -15z m-198 7 c11 -7
5 -55 -10 -72 -6 -7 -4 -16 6 -24 11 -9 12 -17 5 -31 -7 -13 -6 -20 4 -26 14
-8 16 -12 16 -34 0 -5 4 -8 9 -4 6 3 15 -3 20 -13 9 -17 7 -19 -19 -17 -17 1
-30 -1 -30 -4 0 -4 -13 -7 -30 -7 -33 0 -38 7 -15 26 12 10 18 10 32 -1 10 -8
14 -9 10 -2 -4 6 -3 14 2 18 6 3 7 13 4 21 -5 13 -8 13 -15 2 -7 -10 -8 -8 -4
5 3 11 2 16 -4 12 -16 -10 -12 7 8 29 l17 21 -24 -20 c-21 -17 -23 -17 -18 -3
4 13 2 16 -11 12 -9 -3 -6 1 7 9 15 9 20 17 12 21 -6 4 -11 2 -11 -4 0 -6 -5
-8 -12 -4 -9 6 -9 9 0 12 22 7 12 20 -13 18 -34 -4 -51 17 -29 35 15 12 16 11
10 -11 -4 -14 -4 -20 1 -15 12 15 36 18 27 3 -6 -10 -4 -11 7 0 19 18 28 15
24 -9 -3 -12 -1 -19 2 -15 12 12 11 54 -1 52 -6 -2 -8 -1 -3 1 4 3 7 10 7 16
0 6 -12 0 -27 -14 -19 -18 -25 -19 -20 -7 3 10 1 20 -5 24 -7 4 -8 3 -4 -5 9
-14 -15 -11 -27 4 -5 6 -7 3 -3 -7 3 -10 1 -18 -4 -18 -12 0 -22 18 -16 28 6
10 109 7 125 -2z m285 -8 c-3 -4 -9 -8 -15 -8 -5 0 -9 4 -9 8 0 5 7 9 15 9 8
0 12 -4 9 -9z m-47 -40 c-3 -8 -6 -5 -6 6 -1 11 2 17 5 13 3 -3 4 -12 1 -19z
m-19 -6 c-2 -11 3 -26 11 -35 21 -27 5 -20 -25 9 -14 15 -19 24 -10 21 10 -4
16 -1 16 8 0 8 3 15 6 15 3 0 4 -8 2 -18z m117 9 c-9 -8 -36 -10 -30 -2 2 4
11 8 20 8 8 0 13 -3 10 -6z m-34 -38 c13 -16 12 -17 -3 -4 -10 7 -18 15 -18
17 0 8 8 3 21 -13z m-106 -13 c0 -7 -6 -14 -13 -16 -7 -1 -8 0 -2 3 5 2 10 9
10 14 0 6 -4 7 -10 4 -5 -3 -10 -1 -10 5 0 7 6 10 13 8 6 -3 12 -11 12 -18z
m101 -29 c0 -11 -5 -17 -13 -14 -10 4 -11 9 -2 19 15 18 15 18 15 -5z m38 -11
c-6 -6 -10 -3 -10 10 0 13 4 16 10 10 7 -7 7 -13 0 -20z m-114 12 c0 -5 -11
-14 -25 -20 -15 -7 -25 -8 -25 -2 0 6 7 10 15 10 8 0 15 5 15 10 0 6 5 10 10
10 6 0 10 -4 10 -8z m40 4 c0 -2 -7 -7 -16 -10 -8 -3 -12 -2 -9 4 6 10 25 14
25 6z m190 0 c0 -2 -8 -10 -17 -17 -16 -13 -17 -12 -4 4 13 16 21 21 21 13z
m-485 -36 c9 -18 21 -28 27 -24 7 4 8 3 4 -4 -5 -8 -13 -9 -25 -3 -26 14 -44
39 -36 51 9 15 13 13 30 -20z m308 -3 c-5 -8 -8 -7 -11 1 -2 7 -9 9 -14 6 -7
-4 -8 -2 -4 4 4 6 13 9 21 6 8 -4 12 -11 8 -17z m-51 -12 c-8 -16 -9 -16 -15
-1 -4 10 -3 15 3 11 6 -3 10 -1 10 6 0 7 3 10 6 6 3 -3 2 -13 -4 -22z m-27 -6
c11 -16 1 -19 -13 -3 -7 8 -8 14 -3 14 5 0 13 -5 16 -11z"/>
<path d="M4205 5360 c-4 -6 -12 -7 -18 -3 -7 4 -6 0 2 -10 7 -9 18 -14 25 -10
6 4 5 0 -2 -9 -9 -11 -10 -18 -2 -23 5 -3 10 -3 10 2 0 4 5 1 10 -7 6 -10 4
-20 -6 -31 -11 -12 -12 -19 -4 -24 6 -4 9 -13 6 -21 -3 -7 -1 -16 4 -19 4 -3
7 -13 5 -23 -1 -9 2 -23 8 -30 8 -10 7 -16 -4 -23 -12 -7 -12 -9 1 -9 12 0 12
-2 2 -9 -11 -7 -11 -9 1 -14 9 -3 14 -14 13 -24 -2 -10 3 -23 10 -30 15 -15
28 -17 19 -4 -3 5 -1 12 5 16 16 10 0 27 -19 21 -12 -5 -11 -2 3 9 11 8 15 15
8 15 -6 0 -9 7 -5 18 5 14 3 13 -11 -3 -17 -20 -17 -20 -6 3 6 12 8 22 4 22
-3 0 0 8 7 17 8 9 9 14 3 10 -7 -4 -10 3 -8 19 2 18 -2 24 -11 21 -9 -4 -12 3
-10 24 1 16 -2 29 -7 29 -5 0 -2 7 7 16 9 9 14 22 12 29 -3 6 0 12 7 12 6 0
12 -8 12 -18 0 -10 -4 -15 -8 -13 -4 3 -8 0 -8 -5 0 -6 7 -11 16 -11 10 0 14
6 11 15 -4 8 -2 17 4 20 14 9 -1 27 -17 21 -7 -3 -18 3 -24 14 -7 12 -16 17
-27 13 -11 -4 -14 -3 -9 5 4 7 5 12 2 12 -3 0 -8 -5 -11 -10z m42 -45 c0 -8
-4 -12 -9 -9 -4 3 -8 9 -8 15 0 5 4 9 8 9 5 0 9 -7 9 -15z m9 -151 c1 -9 0
-13 -4 -10 -3 4 -7 14 -8 22 -1 9 0 13 4 10 3 -4 7 -14 8 -22z"/>
<path d="M3977 5314 c4 -11 3 -15 -5 -10 -6 3 -13 2 -16 -3 -4 -5 2 -8 11 -7
20 3 28 21 14 31 -7 4 -8 0 -4 -11z"/>
<path d="M3919 5315 c-1 -3 -2 -11 -3 -17 -1 -7 -7 -12 -12 -11 -6 1 -11 -4
-11 -12 0 -10 5 -10 23 3 12 9 18 19 13 20 -5 2 -7 8 -3 13 3 5 3 9 0 9 -3 0
-7 -2 -7 -5z"/>
<path d="M3984 5276 c-3 -8 -13 -12 -22 -9 -15 4 -15 3 -2 -6 11 -8 18 -7 26
4 6 8 14 12 17 8 4 -3 7 -1 7 5 0 17 -20 15 -26 -2z"/>
<path d="M3919 5253 c-13 -16 -12 -17 4 -4 9 7 17 15 17 17 0 8 -8 3 -21 -13z"/>
<path d="M3834 5249 c-3 -6 -2 -15 3 -20 5 -5 9 -1 9 11 0 23 -2 24 -12 9z"/>
<path d="M4265 5252 c-5 -4 -11 -14 -13 -22 -2 -8 -1 -12 3 -8 4 4 14 1 21 -7
17 -17 18 -29 2 -19 -9 5 -8 2 1 -10 11 -12 11 -20 3 -28 -8 -8 -8 -16 -2 -23
5 -6 11 -22 13 -36 2 -13 11 -25 20 -27 21 -4 22 11 2 28 -8 7 -15 16 -15 21
0 13 38 11 46 -2 4 -8 -1 -9 -17 -4 -23 7 -23 6 -7 -10 17 -19 43 -11 34 10
-2 7 2 23 11 34 8 12 13 25 10 28 -3 2 -10 -5 -16 -16 -7 -12 -19 -20 -31 -18
-28 4 -35 14 -21 30 9 11 8 17 -4 27 -8 6 -13 21 -12 32 2 22 -12 32 -28 20z"/>
<path d="M4310 5246 c0 -9 5 -16 10 -16 6 0 10 4 10 9 0 6 -4 13 -10 16 -5 3
-10 -1 -10 -9z"/>
<path d="M3947 5218 c2 -5 10 -8 18 -8 8 0 16 3 18 8 3 4 -5 7 -18 7 -13 0
-21 -3 -18 -7z"/>
<path d="M3995 5210 c-3 -6 1 -7 9 -4 18 7 21 14 7 14 -6 0 -13 -4 -16 -10z"/>
<path d="M3915 5200 c3 -5 8 -10 11 -10 2 0 4 5 4 10 0 6 -5 10 -11 10 -5 0
-7 -4 -4 -10z"/>
<path d="M3945 5180 c-3 -6 1 -7 9 -4 18 7 21 14 7 14 -6 0 -13 -4 -16 -10z"/>
<path d="M3990 5183 c5 -2 8 -9 4 -14 -3 -5 0 -9 6 -9 15 0 7 23 -8 26 -7 1
-8 0 -2 -3z"/>
<path d="M4033 5158 c1 -16 5 -28 9 -28 10 0 9 9 -2 35 -8 17 -8 16 -7 -7z"/>
<path d="M3929 5123 c-13 -16 -12 -17 4 -4 9 7 17 15 17 17 0 8 -8 3 -21 -13z"/>
<path d="M3854 5116 c1 -8 5 -18 8 -22 4 -3 5 1 4 10 -1 8 -5 18 -8 22 -4 3
-5 -1 -4 -10z"/>
<path d="M3995 5120 c-3 -6 1 -7 9 -4 18 7 21 14 7 14 -6 0 -13 -4 -16 -10z"/>
<path d="M3951 5107 c-8 -10 -7 -14 2 -14 8 0 14 6 14 14 0 7 -1 13 -2 13 -2
0 -8 -6 -14 -13z"/>
<path d="M4010 5080 c0 -5 5 -10 10 -10 6 0 10 5 10 10 0 6 -4 10 -10 10 -5 0
-10 -4 -10 -10z"/>
<path d="M4047 5079 c7 -7 15 -10 18 -7 3 3 -2 9 -12 12 -14 6 -15 5 -6 -5z"/>
<path d="M3953 5053 c0 -9 4 -10 14 -2 7 6 13 12 13 14 0 1 -6 2 -13 2 -8 0
-14 -6 -14 -14z"/>
<path d="M4075 5060 c-8 -13 3 -30 18 -29 9 0 9 2 0 6 -7 2 -13 9 -13 14 0 6
5 7 10 4 6 -3 10 -1 10 4 0 14 -17 14 -25 1z"/>
<path d="M4036 5045 c4 -8 8 -15 10 -15 2 0 4 7 4 15 0 8 -4 15 -10 15 -5 0
-7 -7 -4 -15z"/>
<path d="M4319 5047 c6 -8 9 -17 6 -21 -3 -3 0 -2 6 3 12 10 4 31 -13 31 -7 0
-7 -4 1 -13z"/>
<path d="M3987 5019 c7 -7 15 -10 18 -7 3 3 -2 9 -12 12 -14 6 -15 5 -6 -5z"/>
<path d="M4054 5015 c-4 -8 -9 -13 -13 -10 -4 2 -8 -2 -8 -9 0 -8 6 -12 14 -9
7 3 13 11 13 19 0 8 6 11 15 8 8 -4 15 -4 15 -1 0 13 -31 15 -36 2z"/>
<path d="M3873 5005 c0 -8 4 -12 9 -9 5 3 6 10 3 15 -9 13 -12 11 -12 -6z"/>
<path d="M4126 5004 c-9 -24 -2 -26 12 -4 7 11 8 20 3 20 -5 0 -12 -7 -15 -16z"/>
<path d="M3960 5006 c0 -2 8 -10 18 -17 15 -13 16 -12 3 4 -13 16 -21 21 -21
13z"/>
<path d="M4070 4981 c0 -6 4 -13 10 -16 6 -3 7 1 4 9 -7 18 -14 21 -14 7z"/>
<path d="M3913 4955 c0 -8 4 -12 9 -9 5 3 6 10 3 15 -9 13 -12 11 -12 -6z"/>
<path d="M3940 4966 c0 -2 8 -10 18 -17 15 -13 16 -12 3 4 -13 16 -21 21 -21
13z"/>
<path d="M4045 4960 c3 -5 8 -10 11 -10 2 0 4 5 4 10 0 6 -5 10 -11 10 -5 0
-7 -4 -4 -10z"/>
<path d="M4109 4958 c-11 -8 -11 -9 2 -5 9 3 22 0 28 -6 6 -6 13 -9 15 -6 11
11 -31 27 -45 17z"/>
<path d="M3986 4938 c3 -5 10 -6 15 -3 13 9 11 12 -6 12 -8 0 -12 -4 -9 -9z"/>
<path d="M4026 4937 c3 -10 9 -15 12 -12 3 3 0 11 -7 18 -10 9 -11 8 -5 -6z"/>
<path d="M4070 4940 c0 -5 5 -10 10 -10 6 0 10 5 10 10 0 6 -4 10 -10 10 -5 0
-10 -4 -10 -10z"/>
<path d="M4105 4930 c-3 -6 1 -7 9 -4 18 7 21 14 7 14 -6 0 -13 -4 -16 -10z"/>
<path d="M3960 4926 c0 -2 8 -10 18 -17 15 -13 16 -12 3 4 -13 16 -21 21 -21
13z"/>
<path d="M4020 4900 c-9 -6 -10 -10 -3 -10 6 0 15 5 18 10 8 12 4 12 -15 0z"/>
<path d="M3418 4541 c-20 -4 -67 -22 -103 -40 -58 -29 -108 -75 -415 -381
-192 -192 -361 -368 -376 -392 -82 -130 -89 -305 -17 -441 33 -63 678 -718
762 -774 83 -56 159 -76 266 -70 76 3 102 9 160 37 64 30 99 62 418 379 191
190 361 366 377 390 48 71 72 147 73 231 1 95 -6 130 -45 210 -27 58 -71 105
-392 425 -296 296 -371 365 -416 387 -93 44 -196 57 -292 39z m405 -739 l307
-307 -310 -310 -310 -310 -305 305 c-168 168 -305 309 -305 314 0 8 600 614
610 615 3 1 143 -137 313 -307z"/>
<path d="M1694 3129 c-3 -6 -2 -15 4 -21 11 -11 52 6 52 23 0 6 -7 3 -16 -5
-17 -18 -34 -21 -34 -7 0 5 8 12 18 14 15 4 15 5 0 6 -9 0 -20 -4 -24 -10z"/>
<path d="M1770 3112 c7 -13 14 -21 17 -18 3 3 11 -1 17 -10 10 -13 12 -13 12
4 0 12 -6 19 -16 17 -8 -1 -21 5 -28 14 -11 13 -11 12 -2 -7z"/>
<path d="M1753 3080 c0 -23 3 -28 9 -16 5 9 5 23 0 32 -6 12 -9 7 -9 -16z"/>
<path d="M1830 3089 c0 -5 5 -7 10 -4 6 3 10 8 10 11 0 2 -4 4 -10 4 -5 0 -10
-5 -10 -11z"/>
<path d="M1720 3080 c0 -5 5 -10 10 -10 6 0 10 5 10 10 0 6 -4 10 -10 10 -5 0
-10 -4 -10 -10z"/>
<path d="M1210 3070 c0 -5 5 -10 10 -10 6 0 10 5 10 10 0 6 -4 10 -10 10 -5 0
-10 -4 -10 -10z"/>
<path d="M1776 3062 c-2 -4 -1 -14 3 -20 6 -10 11 -9 21 3 11 13 10 14 -5 9
-13 -5 -16 -4 -11 4 4 7 5 12 2 12 -3 0 -7 -4 -10 -8z"/>
<path d="M1825 3060 c-3 -6 1 -7 9 -4 18 7 21 14 7 14 -6 0 -13 -4 -16 -10z"/>
<path d="M1877 3048 c19 -21 31 -25 14 -5 -6 8 -9 16 -6 19 3 2 -2 5 -10 5
-13 0 -13 -3 2 -19z"/>
<path d="M1710 3046 c0 -2 7 -6 15 -10 8 -3 15 -1 15 4 0 6 -7 10 -15 10 -8 0
-15 -2 -15 -4z"/>
<path d="M1836 3042 c-3 -5 1 -9 9 -9 8 0 12 4 9 9 -3 4 -7 8 -9 8 -2 0 -6 -4
-9 -8z"/>
<path d="M1935 3031 c-3 -5 -2 -12 3 -15 5 -3 9 1 9 9 0 17 -3 19 -12 6z"/>
<path d="M1695 3020 c-3 -6 1 -7 9 -4 18 7 21 14 7 14 -6 0 -13 -4 -16 -10z"/>
<path d="M1816 3007 c3 -10 9 -15 12 -12 3 3 0 11 -7 18 -10 9 -11 8 -5 -6z"/>
<path d="M1660 2995 c0 -8 2 -15 4 -15 2 0 6 7 10 15 3 8 1 15 -4 15 -6 0 -10
-7 -10 -15z"/>
<path d="M1753 2992 c0 -10 7 -19 14 -19 9 0 10 4 3 12 -5 7 -7 15 -3 18 3 4
1 7 -5 7 -6 0 -10 -8 -9 -18z"/>
<path d="M1596 2984 c-8 -20 -8 -24 2 -24 4 0 8 9 9 20 2 24 -3 26 -11 4z"/>
<path d="M1630 2980 c-13 -8 -12 -10 3 -10 9 0 17 5 17 10 0 12 -1 12 -20 0z"/>
<path d="M1573 2955 c2 -15 9 -19 26 -17 14 2 21 0 17 -6 -4 -6 -2 -13 3 -16
5 -4 8 2 7 11 -2 10 -11 18 -22 18 -10 0 -22 7 -26 15 -6 11 -7 10 -5 -5z"/>
<path d="M1661 2954 c0 -11 3 -14 6 -6 3 7 2 16 -1 19 -3 4 -6 -2 -5 -13z"/>
<path d="M1697 2956 c-4 -10 -1 -13 8 -9 8 3 12 9 9 14 -7 12 -11 11 -17 -5z"/>
<path d="M1636 2947 c3 -10 9 -15 12 -12 3 3 0 11 -7 18 -10 9 -11 8 -5 -6z"/>
<path d="M1810 2939 c0 -5 5 -7 10 -4 6 3 10 8 10 11 0 2 -4 4 -10 4 -5 0 -10
-5 -10 -11z"/>
<path d="M1734 2920 c0 -13 4 -16 10 -10 7 7 7 13 0 20 -6 6 -10 3 -10 -10z"/>
<path d="M1556 2915 c4 -8 8 -15 10 -15 2 0 4 7 4 15 0 8 -4 15 -10 15 -5 0
-7 -7 -4 -15z"/>
<path d="M1686 2922 c-3 -5 1 -9 9 -9 8 0 12 4 9 9 -3 4 -7 8 -9 8 -2 0 -6 -4
-9 -8z"/>
<path d="M1590 2910 c0 -5 5 -10 11 -10 5 0 7 5 4 10 -3 6 -8 10 -11 10 -2 0
-4 -4 -4 -10z"/>
<path d="M1537 2903 c-9 -9 -9 -41 1 -46 4 -3 7 8 8 24 1 31 1 32 -9 22z"/>
<path d="M1460 2890 c-11 -7 -12 -12 -3 -21 12 -12 53 4 53 22 0 6 -7 3 -16
-5 -8 -9 -21 -16 -27 -16 -7 0 -3 7 7 15 22 16 10 20 -14 5z"/>
<path d="M1790 2896 c0 -2 8 -10 18 -17 15 -13 16 -12 3 4 -13 16 -21 21 -21
13z"/>
<path d="M1570 2885 c0 -7 30 -13 34 -7 3 4 -4 9 -15 9 -10 1 -19 0 -19 -2z"/>
<path d="M1647 2879 c7 -7 15 -10 18 -7 3 3 -2 9 -12 12 -14 6 -15 5 -6 -5z"/>
<path d="M1514 2841 c1 -17 8 -37 16 -44 10 -10 11 -9 4 3 -5 8 -9 25 -10 38
0 12 -4 25 -7 28 -3 3 -5 -8 -3 -25z"/>
<path d="M1559 2852 c-15 -18 -15 -20 5 -32 16 -9 18 -9 9 0 -14 15 -6 43 10
33 6 -3 7 -1 3 5 -9 15 -9 15 -27 -6z"/>
<path d="M1466 2838 c3 -4 11 -5 19 -1 21 7 19 12 -4 10 -11 0 -18 -5 -15 -9z"/>
<path d="M1630 2839 c0 -5 5 -7 10 -4 6 3 10 8 10 11 0 2 -4 4 -10 4 -5 0 -10
-5 -10 -11z"/>
<path d="M1670 2846 c0 -2 7 -7 16 -10 8 -3 12 -2 9 4 -6 10 -25 14 -25 6z"/>
<path d="M1734 2816 c1 -8 5 -18 8 -22 4 -3 5 1 4 10 -1 8 -5 18 -8 22 -4 3
-5 -1 -4 -10z"/>
<path d="M1550 2778 c0 -4 4 -8 9 -8 6 0 12 4 15 8 3 5 -1 9 -9 9 -8 0 -15 -4
-15 -9z"/>
<path d="M1635 2740 c3 -5 8 -10 11 -10 2 0 4 5 4 10 0 6 -5 10 -11 10 -5 0
-7 -4 -4 -10z"/>
<path d="M801 2610 c-202 -42 -357 -237 -350 -439 6 -182 125 -345 293 -401
163 -54 332 -15 452 104 266 266 90 721 -286 741 -36 2 -85 0 -109 -5z"/>
<path d="M4675 2411 c-3 -5 -2 -12 3 -15 5 -3 9 1 9 9 0 17 -3 19 -12 6z"/>
<path d="M6040 2403 c-226 -47 -381 -277 -340 -504 53 -292 368 -447 634 -312
105 53 202 185 224 304 39 210 -83 424 -283 494 -50 18 -187 28 -235 18z"/>
<path d="M4714 2382 c4 -3 14 -7 22 -8 9 -1 13 0 10 4 -4 3 -14 7 -22 8 -9 1
-13 0 -10 -4z"/>
<path d="M4835 2311 c-3 -5 -2 -12 3 -15 5 -3 9 1 9 9 0 17 -3 19 -12 6z"/>
<path d="M4935 2300 c-3 -5 -1 -10 4 -10 6 0 11 5 11 10 0 6 -2 10 -4 10 -3 0
-8 -4 -11 -10z"/>
<path d="M4695 2290 c-4 -6 -11 -7 -17 -4 -7 4 -8 2 -4 -5 6 -9 11 -9 22 0 14
11 18 19 10 19 -3 0 -8 -5 -11 -10z"/>
<path d="M4635 2270 c-4 -6 1 -7 11 -3 13 5 15 3 9 -7 -5 -9 -4 -11 4 -6 6 4
9 12 6 17 -8 12 -22 12 -30 -1z"/>
<path d="M4750 2262 c0 -12 22 -32 35 -32 5 0 2 5 -8 11 -9 6 -15 14 -12 20 4
5 1 9 -4 9 -6 0 -11 -4 -11 -8z"/>
<path d="M4581 2244 c0 -11 3 -14 6 -6 3 7 2 16 -1 19 -3 4 -6 -2 -5 -13z"/>
<path d="M4615 2242 c1 -10 -7 -20 -19 -24 -19 -6 -18 -7 4 -5 14 1 23 6 22
11 -2 5 2 12 8 16 8 5 7 9 -3 13 -10 4 -14 0 -12 -11z"/>
<path d="M4704 2246 c11 -9 16 -16 11 -16 -5 0 -4 -5 3 -12 9 -9 15 -9 25 1
10 10 8 11 -7 5 -13 -5 -17 -4 -12 4 4 6 -3 16 -16 22 -22 11 -22 10 -4 -4z"/>
<path d="M4844 2242 c23 -26 23 -26 23 -7 0 8 -3 13 -5 10 -3 -3 -12 1 -21 7
-10 8 -9 4 3 -10z"/>
<path d="M4893 2246 c0 -15 22 -15 34 0 4 5 4 6 -1 2 -5 -4 -14 -3 -21 2 -8 7
-12 5 -12 -4z"/>
<path d="M4676 2237 c3 -10 9 -15 12 -12 3 3 0 11 -7 18 -10 9 -11 8 -5 -6z"/>
<path d="M4653 2233 c4 -6 0 -13 -8 -17 -18 -6 -20 -26 -3 -26 6 0 8 3 5 7 -4
3 1 11 10 18 13 9 13 14 3 20 -8 5 -11 4 -7 -2z"/>
<path d="M4801 2221 c-8 -5 -9 -11 -3 -15 5 -3 12 1 16 9 6 17 6 18 -13 6z"/>
<path d="M4925 2219 c-4 -6 -13 -8 -19 -6 -14 6 -15 -28 -1 -40 4 -5 4 -2 0 6
-6 11 -4 13 9 8 10 -4 15 -3 11 4 -4 5 -1 16 5 24 7 8 10 15 7 15 -3 0 -9 -5
-12 -11z"/>
<path d="M4950 2226 c0 -2 7 -7 16 -10 8 -3 12 -2 9 4 -6 10 -25 14 -25 6z"/>
<path d="M4746 2205 c-18 -13 -18 -14 2 -12 11 0 19 4 16 8 -2 4 2 10 8 12 7
3 9 6 3 6 -5 0 -18 -6 -29 -14z"/>
<path d="M4690 2200 c0 -5 5 -10 10 -10 6 0 10 5 10 10 0 6 -4 10 -10 10 -5 0
-10 -4 -10 -10z"/>
<path d="M4816 2195 c-6 -17 17 -31 34 -20 6 3 10 -3 10 -16 0 -19 -2 -20 -17
-8 -16 12 -17 12 -6 -2 10 -12 10 -18 0 -29 -9 -10 -9 -11 1 -6 6 4 12 2 12
-3 0 -6 5 -11 12 -11 9 0 9 3 1 11 -8 8 -9 16 -1 29 16 25 4 50 -22 43 -16 -4
-19 -2 -14 11 3 9 4 16 1 16 -3 0 -8 -7 -11 -15z"/>
<path d="M4604 2185 c8 -8 18 -15 22 -15 3 0 1 7 -6 15 -7 8 -17 15 -22 15 -5
0 -3 -7 6 -15z"/>
<path d="M4570 2183 c0 -6 7 -14 16 -17 16 -6 11 -26 -7 -26 -6 0 -7 5 -3 12
4 6 3 8 -3 5 -14 -9 -10 -53 4 -50 6 1 13 -4 16 -11 6 -15 -9 -16 -30 -3 -8 5
-13 3 -13 -7 0 -25 -1 -30 -12 -50 -8 -14 -7 -17 2 -11 8 5 11 3 8 -6 -3 -8
-11 -13 -18 -11 -8 2 -11 -4 -7 -17 3 -11 1 -21 -4 -23 -5 -2 -11 -14 -14 -27
-2 -14 -10 -28 -17 -33 -7 -4 -10 -8 -5 -8 4 0 -2 -18 -13 -40 -11 -22 -17
-40 -13 -40 5 0 3 -4 -2 -8 -6 -4 -23 -32 -39 -62 -74 -139 -202 -306 -323
-421 -380 -362 -912 -520 -1426 -424 -388 73 -734 279 -982 587 l-62 76 -169
-119 c-93 -66 -172 -123 -177 -128 -11 -11 82 -130 183 -235 273 -284 616
-486 988 -581 53 -13 108 -26 122 -28 14 -3 45 -8 70 -12 25 -4 54 -10 65 -12
11 -3 112 -7 225 -8 225 -4 354 10 549 59 487 123 947 451 1216 866 55 85 134
227 137 248 2 9 6 19 10 22 6 5 58 118 58 126 0 2 -5 4 -11 4 -5 0 -7 -5 -3
-12 4 -7 3 -8 -4 -4 -18 11 -14 26 7 26 25 0 37 31 16 46 -9 7 -13 18 -9 28 5
12 2 15 -10 10 -9 -3 -13 -11 -9 -17 4 -6 1 -7 -6 -2 -7 4 -22 -1 -34 -12 -31
-28 -47 -36 -47 -24 0 6 7 11 16 11 8 0 12 5 9 11 -4 6 -9 8 -12 5 -10 -10
-41 38 -35 54 5 13 3 13 -11 1 -21 -16 -21 -16 -1 -35 8 -9 11 -16 6 -16 -5 0
-15 7 -22 15 -10 12 -10 19 -2 27 21 21 13 32 -8 13 -11 -10 -20 -13 -20 -8 0
12 29 27 46 25 6 -1 11 5 11 13 0 19 -7 19 -36 -2 -15 -10 -21 -11 -16 -3 5 8
3 11 -6 8 -8 -3 -13 -17 -13 -31 1 -15 -3 -27 -8 -27 -5 0 -6 9 -3 20 5 15 2
20 -10 20 -11 0 -15 5 -12 14 4 10 0 14 -14 13 -19 -1 -28 -17 -9 -17 12 0
-34 -46 -60 -60 -16 -9 -21 -5 -36 25 -10 21 -21 32 -28 28 -6 -4 -5 1 2 10 8
9 11 21 8 26 -4 5 2 14 11 20 14 8 15 10 3 11 -13 0 -13 2 0 9 8 6 18 7 24 4
5 -4 7 1 3 11 -4 9 -3 14 2 11 5 -3 12 -1 16 5 6 9 -7 14 -27 11 -5 0 -8 4 -8
10 0 6 7 8 16 5 10 -4 13 -2 9 7 -4 6 1 3 9 -7 18 -22 21 -14 6 14 -8 15 -7
18 3 14 8 -3 14 -15 14 -27 0 -12 3 -30 8 -40 6 -15 10 -16 17 -5 7 10 12 9
26 -7 23 -27 51 -31 47 -8 -2 10 -4 20 -4 23 -1 3 -6 -2 -11 -10 -8 -13 -12
-12 -27 4 -17 19 -17 19 2 6 15 -10 17 -11 8 -1 -6 7 -9 20 -6 28 4 11 8 10
20 -4 8 -10 11 -12 7 -4 -5 10 -3 12 7 5 17 -10 60 -14 54 -4 -2 4 2 7 10 7 8
0 13 -3 10 -5 -3 -3 1 -12 8 -21 11 -14 10 -15 -7 -1 -11 8 -17 10 -13 3 5 -8
-2 -10 -24 -6 -18 2 -29 1 -25 -5 3 -5 23 -8 45 -7 27 1 38 -2 34 -9 -4 -6 1
-5 10 3 16 12 22 8 18 -12 -1 -5 3 -6 9 -2 6 4 18 1 27 -7 9 -7 14 -8 11 -2
-4 6 3 10 17 10 13 0 21 -4 18 -9 -3 -5 4 -4 17 3 20 10 21 10 11 -8 -6 -11
-7 -22 -4 -26 3 -3 1 -6 -6 -6 -7 0 -9 -5 -5 -11 4 -8 9 -7 15 2 6 10 8 7 6
-8 -1 -16 -5 -19 -13 -12 -8 6 -14 4 -18 -7 -10 -25 -7 -27 12 -13 15 13 16
12 3 -3 -7 -10 -10 -18 -5 -18 5 0 3 -4 -5 -9 -9 -6 -10 -11 -2 -15 6 -4 13 0
16 8 3 9 8 24 12 34 12 32 12 46 0 61 -10 12 -9 14 6 8 10 -4 16 -3 12 2 -3 5
0 13 6 16 5 4 8 13 5 21 -3 8 0 14 7 14 8 0 7 4 -3 9 -8 6 -17 8 -21 5 -4 -2
-7 4 -6 15 1 12 11 22 26 26 24 6 24 6 4 20 -11 8 -30 12 -43 10 -16 -3 -20 0
-16 10 3 9 0 12 -9 9 -12 -5 -12 -9 1 -29 13 -20 13 -24 -3 -36 -15 -12 -16
-12 -10 5 4 10 2 25 -4 32 -13 16 -29 18 -29 4 0 -5 5 -9 11 -7 6 1 13 -3 16
-9 2 -6 -3 -11 -12 -11 -8 0 -15 3 -15 7 0 8 -49 5 -71 -4 -10 -5 -16 -2 -16
9 0 9 6 14 12 11 7 -2 17 0 23 6 8 8 16 8 27 -2 8 -7 15 -8 15 -2 0 5 -6 12
-12 14 -21 8 -107 2 -115 -7 -5 -4 -3 -6 2 -2 6 3 16 -3 23 -14 14 -23 5 -24
-23 -3 -16 11 -17 18 -8 32 6 9 18 16 27 14 14 -3 13 1 -5 19 -17 17 -23 19
-30 8 -5 -8 -7 -20 -4 -26 2 -7 0 -13 -6 -13 -6 0 -6 -6 0 -19 10 -18 6 -31
-10 -31 -4 0 -6 8 -5 18 2 9 -2 20 -8 24 -8 6 -7 8 1 8 7 0 10 6 7 13 -3 8 4
25 15 38 l21 24 20 -25 c20 -24 21 -24 35 -6 8 10 12 22 10 27 -3 4 0 10 5 12
6 3 5 4 -2 3 -7 -2 -14 -8 -14 -14 -1 -7 -2 -16 -3 -22 0 -5 -6 -10 -12 -10
-6 0 -8 10 -5 23 3 12 3 16 0 9 -5 -10 -9 -10 -20 -1 -11 9 -18 9 -26 1 -8 -8
-15 -7 -24 6 -11 16 -14 15 -38 -7 l-26 -24 -25 23 c-14 13 -25 19 -25 13z
m105 -57 c-9 -21 -10 -37 -4 -49 7 -13 6 -19 -6 -23 -8 -3 -13 -10 -10 -15 3
-4 -4 -13 -15 -19 -11 -6 -20 -9 -21 -8 0 2 -2 17 -3 33 -4 41 -9 59 -20 66
-12 9 1 42 14 34 6 -3 22 3 37 15 33 26 46 10 28 -34z m55 0 c0 -3 -4 -8 -10
-11 -5 -3 -10 -1 -10 4 0 6 5 11 10 11 6 0 10 -2 10 -4z m37 -51 c0 -8 -4 -12
-9 -9 -5 3 -6 10 -3 15 9 13 12 11 12 -6z m-197 -5 c0 -5 -5 -10 -11 -10 -5 0
-7 5 -4 10 3 6 8 10 11 10 2 0 4 -4 4 -10z m396 -2 c5 -7 1 -9 -9 -5 -18 7
-19 6 -21 -33 0 -14 4 -24 9 -23 13 2 17 -35 4 -42 -5 -3 -6 0 -3 8 4 11 -6
14 -46 12 -34 -1 -57 3 -66 12 -7 8 -18 12 -23 9 -5 -3 -14 0 -20 8 -24 29 38
57 68 30 12 -11 -11 -15 -24 -4 -9 7 -19 10 -22 6 -11 -10 -12 -37 -2 -30 5 3
6 10 3 16 -4 6 -1 8 7 6 8 -3 13 -11 11 -17 -1 -7 2 -9 9 -5 8 4 9 3 5 -4 -5
-8 -2 -10 8 -6 9 3 15 9 14 12 0 4 0 14 1 22 1 12 4 11 12 -3 10 -17 12 -17
29 -2 10 9 17 22 14 29 -6 15 33 18 42 4z m-230 -26 c1 -7 0 -8 -3 -2 -2 5 -9
10 -14 10 -6 0 -7 -5 -3 -12 4 -7 3 -8 -5 -4 -14 9 -4 29 12 23 6 -2 12 -9 13
-15z m-214 -156 c7 4 8 2 4 -4 -11 -18 -26 -14 -25 6 0 10 3 12 6 4 2 -6 10
-9 15 -6z m141 7 c-7 -2 -13 -9 -13 -14 0 -6 5 -7 12 -3 7 4 8 3 4 -4 -4 -7 0
-12 11 -13 11 0 13 -3 5 -6 -19 -8 -56 28 -40 39 7 4 18 7 23 7 6 0 4 -3 -2
-6z m-13 -56 c0 -6 -7 -2 -16 9 -13 16 -15 16 -10 2 3 -10 1 -18 -4 -18 -11 0
-13 23 -3 33 8 8 33 -12 33 -26z m62 8 c-6 -33 -15 -38 -38 -19 -18 14 -18 15
4 4 19 -9 22 -8 22 8 0 16 8 32 15 32 1 0 0 -11 -3 -25z m-192 1 c0 -3 -4 -8
-10 -11 -5 -3 -10 -1 -10 4 0 6 5 11 10 11 6 0 10 -2 10 -4z m75 -6 c-3 -5
-12 -10 -18 -10 -7 0 -6 4 3 10 19 12 23 12 15 0z m-105 -20 c0 -5 -4 -10 -10
-10 -5 0 -10 5 -10 10 0 6 5 10 10 10 6 0 10 -4 10 -10z m75 0 c3 -6 -1 -7 -9
-4 -18 7 -21 14 -7 14 6 0 13 -4 16 -10z m205 0 c-8 -5 -18 -6 -22 -4 -4 3 -8
0 -8 -7 0 -7 -3 -10 -6 -6 -10 10 4 23 28 24 17 2 19 0 8 -7z m100 -1 c0 -5 4
-8 8 -5 4 2 14 1 21 -3 9 -6 10 -11 2 -15 -6 -4 -11 -2 -11 5 0 8 -4 8 -12 2
-16 -13 -48 -13 -48 -1 0 5 10 6 22 2 20 -6 21 -5 9 10 -9 10 -10 16 -2 16 6
0 11 -5 11 -11z m-259 -16 c13 -17 13 -17 -6 -3 -11 8 -22 16 -24 17 -2 2 0 3
6 3 6 0 17 -8 24 -17z m-64 -8 c0 -8 -4 -12 -9 -9 -4 3 -8 9 -8 15 0 5 4 9 8
9 5 0 9 -7 9 -15z m228 5 c-3 -5 -12 -10 -18 -10 -7 0 -6 4 3 10 19 12 23 12
15 0z m-111 -9 c4 -5 -3 -7 -14 -4 -23 6 -26 13 -6 13 8 0 17 -4 20 -9z m-135
-35 c-3 -3 -11 5 -18 17 -13 21 -12 21 5 5 10 -10 16 -20 13 -22z m217 9 c2
-12 -2 -12 -17 -5 -23 13 -25 22 -2 13 12 -5 14 -3 8 8 -5 8 -4 11 0 6 5 -4
10 -14 11 -22z m39 15 c-3 -5 -1 -10 6 -10 7 0 10 -3 6 -6 -9 -9 -28 6 -22 17
4 5 8 9 11 9 3 0 2 -4 -1 -10z m40 1 c3 -5 0 -13 -6 -17 -7 -4 -9 -3 -5 4 3 5
0 13 -6 15 -9 4 -10 6 -1 6 6 1 14 -3 18 -8z m25 -16 c0 -8 -4 -15 -10 -15 -5
0 -7 7 -4 15 4 8 8 15 10 15 2 0 4 -7 4 -15z m-280 -1 c0 -8 -19 -13 -24 -6
-3 5 1 9 9 9 8 0 15 -2 15 -3z m34 -2 c3 -5 -1 -9 -9 -9 -8 0 -12 4 -9 9 3 4
7 8 9 8 2 0 6 -4 9 -8z m85 5 c-2 -1 -13 -9 -24 -17 -19 -14 -19 -14 -6 3 7 9
18 17 24 17 6 0 8 -1 6 -3z m-99 -31 c0 -2 -8 -10 -17 -17 -16 -13 -17 -12 -4
4 13 16 21 21 21 13z m178 -21 c-3 -3 -9 2 -12 12 -6 14 -5 15 5 6 7 -7 10
-15 7 -18z m82 1 c0 -2 -8 -10 -17 -17 -16 -13 -17 -12 -4 4 13 16 21 21 21
13z m-129 -23 c13 -16 12 -17 -3 -4 -17 13 -22 21 -14 21 2 0 10 -8 17 -17z
m-31 3 c0 -2 -6 -9 -14 -15 -11 -9 -16 -9 -22 0 -4 7 -3 9 4 5 6 -3 13 -2 17
4 6 10 15 14 15 6z m-155 -16 c-3 -5 -12 -10 -18 -10 -7 0 -6 4 3 10 19 12 23
12 15 0z m86 -13 c-10 -9 -11 -8 -5 6 3 10 9 15 12 12 3 -3 0 -11 -7 -18z
m144 -46 c-9 -8 -36 -10 -30 -2 2 4 11 8 20 8 8 0 13 -3 10 -6z"/>
<path d="M4660 2150 c-9 -6 -10 -10 -3 -10 6 0 15 5 18 10 8 12 4 12 -15 0z"/>
<path d="M4625 2129 c-4 -5 -12 -7 -18 -3 -7 3 -3 -2 8 -10 20 -17 36 -17 42
1 5 14 -25 25 -32 12z m20 -9 c3 -5 1 -10 -4 -10 -6 0 -11 5 -11 10 0 6 2 10
4 10 3 0 8 -4 11 -10z"/>
<path d="M4629 2088 c-1 -2 -2 -17 -3 -34 -1 -23 2 -30 11 -27 10 4 11 9 2 19
-11 14 -1 20 25 15 5 -1 4 5 -4 13 -11 14 -28 21 -31 14z"/>
<path d="M4874 2013 c0 -13 8 -19 28 -20 27 -1 37 10 19 22 -5 3 -13 0 -16 -5
-5 -7 -11 -6 -19 5 -11 15 -12 15 -12 -2z"/>
<path d="M4915 2160 c-13 -6 -15 -9 -5 -9 8 0 22 4 30 9 18 12 2 12 -25 0z"/>
<path d="M4975 2160 c-3 -5 -1 -10 4 -10 6 0 11 5 11 10 0 6 -2 10 -4 10 -3 0
-8 -4 -11 -10z"/>
<path d="M4803 2143 c9 -2 15 -8 12 -13 -3 -5 -12 -7 -19 -4 -8 3 -17 1 -20
-5 -8 -13 37 -10 46 3 10 14 0 26 -20 25 -15 -1 -15 -2 1 -6z"/>
<path d="M4877 2135 c-8 -20 9 -28 30 -15 16 9 15 10 -4 5 -18 -5 -22 -3 -17
9 3 9 4 16 1 16 -3 0 -7 -7 -10 -15z"/>
<path d="M4939 2148 c0 -2 -2 -14 -5 -28 -3 -18 -2 -21 5 -10 5 8 7 18 4 23
-3 5 5 6 18 2 19 -5 21 -4 9 4 -14 10 -29 14 -31 9z"/>
<path d="M4975 2101 c-3 -5 0 -13 6 -17 7 -4 9 -3 5 4 -3 5 0 13 6 15 9 4 10
6 1 6 -6 1 -14 -3 -18 -8z"/>
<path d="M4581 2001 c-7 -12 -17 -18 -23 -15 -7 4 -8 3 -4 -5 4 -6 1 -14 -7
-16 -16 -7 -15 -28 5 -74 l15 -34 31 30 c24 23 29 32 20 41 -7 7 -16 12 -22
12 -6 0 -5 -5 1 -11 9 -9 8 -15 -2 -25 -19 -19 -30 -17 -14 2 11 14 10 19 -7
33 -19 15 -19 17 -2 34 12 11 18 13 18 5 0 -10 2 -10 8 -1 5 9 12 6 21 -10 13
-21 13 -21 -4 -7 -16 13 -18 13 -13 0 3 -8 18 -15 34 -16 57 -2 61 -3 44 -14
-10 -7 -11 -10 -2 -10 7 0 15 7 18 15 5 13 9 13 22 3 12 -10 14 -10 8 -1 -5 9
1 12 21 9 39 -4 66 7 69 28 2 13 -1 14 -10 7 -7 -6 -16 -8 -20 -4 -9 10 -76
12 -71 2 3 -4 -2 -12 -10 -19 -12 -10 -15 -10 -15 1 0 11 -2 11 -10 -1 -7 -11
-10 -11 -10 -2 0 7 -5 10 -11 7 -6 -4 -9 -1 -7 6 1 8 -2 15 -7 16 -6 0 -9 -4
-7 -10 1 -7 -9 1 -22 17 -24 29 -24 29 -35 7z m207 -30 c2 -1 0 -6 -3 -11 -5
-8 -11 -7 -21 1 -11 9 -14 8 -15 -2 0 -11 -2 -11 -6 -1 -4 10 -8 10 -21 0 -15
-11 -15 -11 -5 3 10 13 47 18 71 10z m-218 -52 c0 -6 -4 -7 -10 -4 -5 3 -10
11 -10 16 0 6 5 7 10 4 6 -3 10 -11 10 -16z"/>
<path d="M4575 1961 c-3 -5 -1 -12 5 -16 5 -3 10 1 10 9 0 18 -6 21 -15 7z"/>
<path d="M4833 1950 c1 -11 5 -20 10 -20 5 0 6 8 3 18 -6 16 -5 16 8 -1 10
-14 15 -15 19 -5 4 11 6 11 6 0 1 -7 6 -10 13 -6 7 4 8 3 4 -5 -4 -6 -12 -9
-17 -6 -5 4 -9 1 -9 -4 0 -6 5 -11 10 -11 6 0 10 -5 10 -11 0 -5 -5 -7 -12 -3
-6 4 -8 3 -4 -4 3 -6 1 -14 -5 -18 -8 -4 -9 -3 -5 4 4 7 3 12 -3 12 -5 0 -11
-3 -14 -7 -2 -5 -2 -3 -1 4 2 6 -4 14 -12 17 -17 6 -17 5 -4 -28 7 -20 6 -24
-5 -20 -8 3 -11 13 -7 22 5 15 4 15 -11 3 -21 -17 -22 -31 -2 -31 8 0 15 -4
15 -10 0 -13 68 32 75 50 2 8 4 17 3 20 -1 3 4 16 11 29 7 13 8 21 3 17 -6 -3
-14 -2 -17 4 -5 8 -11 8 -20 0 -9 -8 -15 -8 -20 0 -10 17 -24 11 -22 -10z"/>
<path d="M4795 1937 c-29 -18 -31 -40 -3 -31 28 9 38 9 61 -1 13 -5 16 -3 12
7 -4 9 -16 14 -31 12 -21 -2 -23 0 -13 12 14 17 1 18 -26 1z"/>
<path d="M4780 1885 c-7 -8 -8 -15 -2 -15 5 0 15 7 22 15 7 8 8 15 2 15 -5 0
-15 -7 -22 -15z"/>
</g>
</svg>
