<svg width="16" height="16" viewBox="0 0 16 16" fill="none" xmlns="http://www.w3.org/2000/svg">
<rect width="16" height="16" fill="white" fill-opacity="0.01"/>
<path d="M3 10.5V10H2V10.5C2 11.4283 2.36875 12.3185 3.02513 12.9749C3.6815 13.6313 4.57174 14 5.5 14H7V13H5.5C4.83696 13 4.20107 12.7366 3.73223 12.2678C3.26339 11.7989 3 11.163 3 10.5Z" fill="#161616"/>
<path d="M12 5.5V6H13V5.5C13 4.57174 12.6313 3.6815 11.9749 3.02513C11.3185 2.36875 10.4283 2 9.5 2H8V3H9.5C9.8283 3 10.1534 3.06467 10.4567 3.1903C10.76 3.31594 11.0356 3.50009 11.2678 3.73223C11.4999 3.96438 11.6841 4.23998 11.8097 4.54329C11.9353 4.84661 12 5.1717 12 5.5Z" fill="#161616"/>
<path d="M5.5 5.5H2.5C2.10218 5.5 1.72064 5.65804 1.43934 5.93934C1.15804 6.22064 1 6.60218 1 7V8H2V7C2 6.86739 2.05268 6.74022 2.14645 6.64645C2.24021 6.55268 2.36739 6.5 2.5 6.5H5.5C5.63261 6.5 5.75979 6.55268 5.85355 6.64645C5.94732 6.74022 6 6.86739 6 7V8H7V7C7 6.60218 6.84196 6.22064 6.56066 5.93934C6.27936 5.65804 5.89782 5.5 5.5 5.5Z" fill="#161616"/>
<path d="M4 5C4.39556 5 4.78224 4.8827 5.11114 4.66294C5.44004 4.44318 5.69638 4.13082 5.84776 3.76537C5.99913 3.39992 6.03874 2.99778 5.96157 2.60982C5.8844 2.22186 5.69392 1.86549 5.41421 1.58579C5.13451 1.30608 4.77814 1.1156 4.39018 1.03843C4.00222 0.96126 3.60009 1.00087 3.23463 1.15224C2.86918 1.30362 2.55682 1.55996 2.33706 1.88886C2.1173 2.21776 2 2.60444 2 3C2 3.53043 2.21071 4.03914 2.58579 4.41421C2.96086 4.78929 3.46957 5 4 5ZM4 2C4.19778 2 4.39112 2.05865 4.55557 2.16853C4.72002 2.27841 4.84819 2.43459 4.92388 2.61732C4.99957 2.80004 5.01937 3.00111 4.98079 3.19509C4.9422 3.38907 4.84696 3.56726 4.70711 3.70711C4.56725 3.84696 4.38907 3.9422 4.19509 3.98079C4.00111 4.01937 3.80004 3.99957 3.61732 3.92388C3.43459 3.84819 3.27841 3.72002 3.16853 3.55557C3.05865 3.39112 3 3.19778 3 3C3 2.73478 3.10536 2.48043 3.29289 2.29289C3.48043 2.10536 3.73478 2 4 2Z" fill="#161616"/>
<path d="M13.5 12.5H10.5C10.1022 12.5 9.72064 12.658 9.43934 12.9393C9.15804 13.2206 9 13.6022 9 14V15H10V14C10 13.8674 10.0527 13.7402 10.1464 13.6464C10.2402 13.5527 10.3674 13.5 10.5 13.5H13.5C13.6326 13.5 13.7598 13.5527 13.8536 13.6464C13.9473 13.7402 14 13.8674 14 14V15H15V14C15 13.6022 14.842 13.2206 14.5607 12.9393C14.2794 12.658 13.8978 12.5 13.5 12.5Z" fill="#161616"/>
<path d="M10 10C10 10.3956 10.1173 10.7822 10.3371 11.1111C10.5568 11.44 10.8692 11.6964 11.2346 11.8478C11.6001 11.9991 12.0022 12.0387 12.3902 11.9616C12.7781 11.8844 13.1345 11.6939 13.4142 11.4142C13.6939 11.1345 13.8844 10.7781 13.9616 10.3902C14.0387 10.0022 13.9991 9.60009 13.8478 9.23463C13.6964 8.86918 13.44 8.55682 13.1111 8.33706C12.7822 8.1173 12.3956 8 12 8C11.4696 8 10.9609 8.21071 10.5858 8.58579C10.2107 8.96086 10 9.46957 10 10ZM13 10C13 10.1978 12.9414 10.3911 12.8315 10.5556C12.7216 10.72 12.5654 10.8482 12.3827 10.9239C12.2 10.9996 11.9989 11.0194 11.8049 10.9808C11.6109 10.9422 11.4327 10.847 11.2929 10.7071C11.153 10.5673 11.0578 10.3891 11.0192 10.1951C10.9806 10.0011 11.0004 9.80004 11.0761 9.61732C11.1518 9.43459 11.28 9.27841 11.4444 9.16853C11.6089 9.05865 11.8022 9 12 9C12.2652 9 12.5196 9.10536 12.7071 9.29289C12.8946 9.48043 13 9.73478 13 10Z" fill="#161616"/>
</svg>
