<svg width="58" height="32" viewBox="0 0 58 32" fill="none" xmlns="http://www.w3.org/2000/svg">
<rect width="58" height="32.001" rx="16" fill="#D0E2FF"/>
<path d="M18.228 20H13.116V11.624H18.228V12.512H14.124V15.32H17.988V16.208H14.124V19.112H18.228V20ZM24.1789 20V18.992H24.1309C23.7589 19.76 23.1709 20.144 22.3189 20.144C20.7709 20.144 19.7989 18.884 19.7989 16.904C19.7989 14.924 20.7709 13.664 22.3189 13.664C23.1709 13.664 23.8069 14.036 24.1309 14.816H24.1789V11.12H25.1389V20H24.1789ZM22.5829 19.28C23.4589 19.28 24.1789 18.824 24.1789 18.02V15.716C24.1789 15.032 23.4589 14.528 22.5829 14.528C21.5029 14.528 20.8309 15.272 20.8309 16.376V17.432C20.8309 18.536 21.5029 19.28 22.5829 19.28ZM27.9798 12.356C27.5718 12.356 27.3918 12.14 27.3918 11.816V11.66C27.3918 11.336 27.5718 11.12 27.9798 11.12C28.3878 11.12 28.5678 11.336 28.5678 11.66V11.816C28.5678 12.14 28.3878 12.356 27.9798 12.356ZM27.4998 20V13.808H28.4598V20H27.4998ZM33.3878 20H32.1878C31.5278 20 31.1678 19.58 31.1678 18.98V14.648H30.1478V13.808H30.7238C31.1318 13.808 31.2638 13.664 31.2638 13.244V12.092H32.1278V13.808H33.4838V14.648H32.1278V19.16H33.3878V20ZM37.64 20.144C35.984 20.144 34.844 18.872 34.844 16.904C34.844 14.936 35.984 13.664 37.64 13.664C39.296 13.664 40.436 14.936 40.436 16.904C40.436 18.872 39.296 20.144 37.64 20.144ZM37.64 19.292C38.672 19.292 39.404 18.656 39.404 17.348V16.46C39.404 15.152 38.672 14.516 37.64 14.516C36.608 14.516 35.876 15.152 35.876 16.46V17.348C35.876 18.656 36.608 19.292 37.64 19.292ZM43.2948 20H42.3348V13.808H43.2948V14.948H43.3548C43.5708 14.36 44.1348 13.808 45.1428 13.808H45.5148V14.768H44.9508C43.9188 14.768 43.2948 15.212 43.2948 15.8V20Z" fill="#0043CE"/>
<rect width="16.002" height="0.001" transform="translate(20.999 23)" fill="white" fill-opacity="0.01" style="mix-blend-mode:multiply"/>
</svg>
