<svg width="1424" height="560" viewBox="0 0 1424 560" fill="none" xmlns="http://www.w3.org/2000/svg">
<rect width="1424" height="560" fill="white"/>
<rect width="433" height="400" transform="translate(100 80)" fill="white" fill-opacity="0.01" style="mix-blend-mode:multiply"/>
<rect x="100" y="80" width="433" height="400" fill="white"/>
<rect x="100" y="80" width="433" height="400" fill="#F6F2FF"/>
<g clip-path="url(#clip0_1_8573)">
<text fill="black" xml:space="preserve" style="white-space: pre" font-family="IBM Plex Sans" font-size="14" font-weight="600" letter-spacing="0.16px"><tspan x="116" y="100.25">Kafka</tspan></text>
<line x1="102" y1="80" x2="102" y2="110" stroke="#A56EFF" stroke-width="4"/>
</g>
<path d="M106.015 80V80.5H110.023V80H114.033V80.5H118.042V80H122.052V80.5H126.061V80H130.069V80.5H134.079V80H138.088V80.5H142.098V80H146.106V80.5H150.116V80H154.125V80.5H158.135V80H162.144V80.5H166.153V80H170.162V80.5H174.172V80H178.181V80.5H182.19V80H186.199V80.5H190.208V80H194.218V80.5H198.227V80H202.236V80.5H206.245V80H210.255V80.5H214.264V80H218.273V80.5H222.282V80H226.292V80.5H230.301V80H234.311V80.5H238.319V80H242.329V80.5H246.338V80H250.348V80.5H254.356V80H258.365V80.5H262.375V80H266.384V80.5H270.394V80H274.402V80.5H278.412V80H282.421V80.5H286.431V80H290.439V80.5H294.449V80H298.458V80.5H302.468V80H306.477V80.5H310.486V80H314.495V80.5H318.505V80H322.514V80.5H326.523V80H330.532V80.5H334.542V80H338.551V80.5H342.561V80H346.569V80.5H350.578V80H354.588V80.5H358.597V80H362.606V80.5H366.615V80H370.625V80.5H374.634V80H378.644V80.5H382.652V80H386.662V80.5H390.671V80H394.681V80.5H398.689V80H402.699V80.5H406.708V80H410.718V80.5H414.727V80H418.736V80.5H422.745V80H426.755V80.5H430.764V80H434.773V80.5H438.782V80H442.792V80.5H446.801V80H450.811V80.5H454.819V80H458.829V80.5H462.838V80H466.848V80.5H470.856V80H474.866V80.5H478.875V80H482.884V80.5H486.894V80H490.902V80.5H494.912V80H498.921V80.5H502.931V80H506.939V80.5H510.949V80H514.958V80.5H518.968V80H522.977V80.5H526.986V80H530.995V80.5H532.5V82H533V86H532.5V90H533V94H532.5V98H533V102H532.5V106H533V110H532.5V114H533V118H532.5V122H533V126H532.5V130H533V134H532.5V138H533V142H532.5V146H533V150H532.5V154H533V158H532.5V162H533V166H532.5V170H533V174H532.5V178H533V182H532.5V186H533V190H532.5V194H533V198H532.5V202H533V206H532.5V210H533V214H532.5V218H533V222H532.5V226H533V230H532.5V234H533V238H532.5V242H533V246H532.5V250H533V254H532.5V258H533V262H532.5V266H533V270H532.5V274H533V278H532.5V282H533V286H532.5V290H533V294H532.5V298H533V302H532.5V306H533V310H532.5V314H533V318H532.5V322H533V326H532.5V330H533V334H532.5V338H533V342H532.5V346H533V350H532.5V354H533V358H532.5V362H533V366H532.5V370H533V374H532.5V378H533V382H532.5V386H533V390H532.5V394H533V398H532.5V402H533V406H532.5V410H533V414H532.5V418H533V422H532.5V426H533V430H532.5V434H533V438H532.5V442H533V446H532.5V450H533V454H532.5V458H533V462H532.5V466H533V470H532.5V474H533V478H532.5V479.5H530.995V480H526.985V479.5H522.977V480H518.967V479.5H514.958V480H510.948V479.5H506.939V480H502.931V479.5H498.921V480H494.912V479.5H490.902V480H486.894V479.5H482.884V480H478.875V479.5H474.865V480H470.856V479.5H466.847V480H462.838V479.5H458.828V480H454.819V479.5H450.81V480H446.801V479.5H442.791V480H438.782V479.5H434.773V480H430.764V479.5H426.755V480H422.745V479.5H418.736V480H414.727V479.5H410.718V480H406.708V479.5H402.699V480H398.689V479.5H394.681V480H390.671V479.5H386.662V480H382.652V479.5H378.644V480H374.635V479.5H370.625V480H366.616V479.5H362.606V480H358.598V479.5H354.588V480H350.579V479.5H346.569V480H342.561V479.5H338.551V480H334.542V479.5H330.532V480H326.523V479.5H322.514V480H318.505V479.5H314.495V480H310.486V479.5H306.477V480H302.468V479.5H298.458V480H294.449V479.5H290.439V480H286.431V479.5H282.421V480H278.412V479.5H274.403V480H270.394V479.5H266.385V480H262.375V479.5H258.366V480H254.356V479.5H250.348V480H246.338V479.5H242.329V480H238.319V479.5H234.311V480H230.301V479.5H226.292V480H222.282V479.5H218.273V480H214.264V479.5H210.255V480H206.245V479.5H202.236V480H198.227V479.5H194.218V480H190.208V479.5H186.199V480H182.189V479.5H178.181V480H174.171V479.5H170.162V480H166.152V479.5H162.144V480H158.134V479.5H154.125V480H150.116V479.5H146.106V480H142.098V479.5H138.088V480H134.079V479.5H130.069V480H126.061V479.5H122.051V480H118.042V479.5H114.032V480H110.023V479.5H106.014V480H102.005V479.5H100.5V478H100V474H100.5V470H100V466H100.5V462H100V458H100.5V454H100V450H100.5V446H100V442H100.5V438H100V434H100.5V430H100V426H100.5V422H100V418H100.5V414H100V410H100.5V406H100V402H100.5V398H100V394H100.5V390H100V386H100.5V382H100V378H100.5V374H100V370H100.5V366H100V362H100.5V358H100V354H100.5V350H100V346H100.5V342H100V338H100.5V334H100V330H100.5V326H100V322H100.5V318H100V314H100.5V310H100V306H100.5V302H100V298H100.5V294H100V290H100.5V286H100V282H100.5V278H100V274H100.5V270H100V266H100.5V262H100V258H100.5V254H100V250H100.5V246H100V242H100.5V238H100V234H100.5V230H100V226H100.5V222H100V218H100.5V214H100V210H100.5V206H100V202H100.5V198H100V194H100.5V190H100V186H100.5V182H100V178H100.5V174H100V170H100.5V166H100V162H100.5V158H100V154H100.5V150H100V146H100.5V142H100V138H100.5V134H100V130H100.5V126H100V122H100.5V118H100V114H100.5V110H100V106H100.5V102H100V98H100.5V94H100V90H100.5V86H100V82H100.5V80.5H102.005V80H106.015Z" stroke="#A56EFF" stroke-dasharray="4 4"/>
<rect x="876.5" y="128.5" width="447" height="287" fill="white" fill-opacity="0.01" style="mix-blend-mode:multiply"/>
<rect x="876.5" y="128.5" width="447" height="287" stroke="#A56EFF"/>
<rect x="877" y="129" width="446" height="286" fill="white"/>
<rect x="877" y="129" width="446" height="286" fill="#F6F2FF"/>
<g clip-path="url(#clip1_1_8573)">
<text fill="black" xml:space="preserve" style="white-space: pre" font-family="IBM Plex Sans" font-size="14" font-weight="600" letter-spacing="0.16px"><tspan x="892" y="148.25">Kafka client</tspan></text>
<line x1="878" y1="128" x2="878" y2="158" stroke="#A56EFF" stroke-width="4"/>
</g>
<rect x="940.5" y="304.5" width="319" height="47" stroke="black"/>
<rect x="941" y="305" width="318" height="46" fill="white"/>
<g clip-path="url(#clip2_1_8573)">
<text fill="black" xml:space="preserve" style="white-space: pre" font-family="IBM Plex Sans" font-size="14" font-weight="600" letter-spacing="0.16px"><tspan x="1004" y="333.25">Topic</tspan></text>
<path d="M940 304H988V352H940V304Z" fill="black"/>
<rect width="24" height="24" transform="translate(952 316)" fill="white" fill-opacity="0.01" style="mix-blend-mode:multiply"/>
<path d="M973 329.5H968.5C968.102 329.5 967.721 329.659 967.44 329.94C967.159 330.221 967 330.602 967 331V332.5H962.811L959.5 329.189V325H961C961.398 325 961.779 324.841 962.06 324.56C962.341 324.279 962.5 323.898 962.5 323.5V319C962.5 318.602 962.341 318.221 962.06 317.94C961.779 317.659 961.398 317.5 961 317.5H956.5C956.102 317.5 955.721 317.659 955.44 317.94C955.159 318.221 955 318.602 955 319V323.5C955 323.898 955.159 324.279 955.44 324.56C955.721 324.841 956.102 325 956.5 325H958V329.189L954.47 332.72C954.4 332.789 954.345 332.872 954.307 332.963C954.269 333.054 954.25 333.152 954.25 333.25C954.25 333.348 954.269 333.446 954.307 333.537C954.345 333.628 954.4 333.711 954.47 333.78L958.22 337.53C958.289 337.6 958.372 337.655 958.463 337.693C958.554 337.731 958.652 337.75 958.75 337.75C958.849 337.75 958.946 337.731 959.037 337.693C959.128 337.655 959.211 337.6 959.28 337.53L962.811 334H967V335.5C967 335.898 967.159 336.279 967.44 336.56C967.721 336.841 968.102 337 968.5 337H973C973.398 337 973.779 336.841 974.06 336.56C974.341 336.279 974.5 335.898 974.5 335.5V331C974.5 330.602 974.341 330.221 974.06 329.94C973.779 329.659 973.398 329.5 973 329.5ZM956.5 319H961V323.5H956.5V319ZM958.75 335.939L956.061 333.25L958.75 330.561L961.439 333.25L958.75 335.939ZM968.5 335.5V331H973V335.5H968.5Z" fill="white"/>
</g>
<rect x="940.5" y="192.5" width="319" height="47" stroke="black"/>
<rect x="941" y="193" width="318" height="46" fill="white"/>
<g clip-path="url(#clip3_1_8573)">
<text fill="black" xml:space="preserve" style="white-space: pre" font-family="IBM Plex Sans" font-size="14" font-weight="600" letter-spacing="0.16px"><tspan x="1004" y="221.25">Cluster bootstrap server</tspan></text>
<path d="M940 192H988V240H940V192Z" fill="black"/>
<rect width="24" height="24" transform="translate(952 204)" fill="white" fill-opacity="0.01" style="mix-blend-mode:multiply"/>
<path d="M967.75 225C968.578 225 969.25 224.328 969.25 223.5C969.25 222.672 968.578 222 967.75 222C966.922 222 966.25 222.672 966.25 223.5C966.25 224.328 966.922 225 967.75 225Z" fill="white"/>
<path d="M967.75 210C968.578 210 969.25 209.328 969.25 208.5C969.25 207.672 968.578 207 967.75 207C966.922 207 966.25 207.672 966.25 208.5C966.25 209.328 966.922 210 967.75 210Z" fill="white"/>
<path d="M955 217.5C955.828 217.5 956.5 216.828 956.5 216C956.5 215.172 955.828 214.5 955 214.5C954.172 214.5 953.5 215.172 953.5 216C953.5 216.828 954.172 217.5 955 217.5Z" fill="white"/>
<path d="M973 213C972.337 213.002 971.693 213.224 971.169 213.631C970.646 214.038 970.272 214.608 970.107 215.25H966.893C966.787 214.827 966.589 214.433 966.314 214.095C966.038 213.757 965.691 213.483 965.298 213.294C964.905 213.105 964.476 213.005 964.04 213C963.603 212.996 963.172 213.087 962.775 213.268L960.392 210.29C960.784 209.776 960.998 209.147 961 208.5C961 207.907 960.824 207.327 960.494 206.833C960.165 206.34 959.696 205.955 959.148 205.728C958.6 205.501 957.997 205.442 957.415 205.558C956.833 205.673 956.298 205.959 955.879 206.379C955.459 206.798 955.173 207.333 955.058 207.915C954.942 208.497 955.001 209.1 955.228 209.648C955.455 210.196 955.84 210.665 956.333 210.994C956.827 211.324 957.407 211.5 958 211.5C958.423 211.499 958.841 211.408 959.225 211.232L961.607 214.209C961.214 214.723 961 215.353 961 216C961 216.647 961.214 217.276 961.607 217.79L959.226 220.768C958.841 220.592 958.423 220.501 958 220.5C957.407 220.5 956.827 220.676 956.333 221.006C955.84 221.335 955.455 221.804 955.228 222.352C955.001 222.9 954.942 223.503 955.058 224.085C955.173 224.667 955.459 225.202 955.879 225.621C956.298 226.041 956.833 226.327 957.415 226.442C957.997 226.558 958.6 226.499 959.148 226.272C959.696 226.045 960.165 225.66 960.494 225.167C960.824 224.673 961 224.093 961 223.5C960.998 222.853 960.785 222.224 960.392 221.71L962.774 218.732C963.171 218.913 963.603 219.005 964.039 219C964.475 218.996 964.905 218.895 965.298 218.706C965.691 218.517 966.038 218.244 966.314 217.906C966.589 217.568 966.787 217.173 966.893 216.75H970.107C970.248 217.292 970.538 217.784 970.945 218.169C971.351 218.554 971.858 218.818 972.406 218.93C972.955 219.042 973.524 218.997 974.049 218.802C974.574 218.607 975.034 218.268 975.376 217.825C975.718 217.381 975.929 216.851 975.985 216.293C976.041 215.736 975.939 215.174 975.692 214.672C975.444 214.169 975.061 213.746 974.585 213.451C974.109 213.155 973.56 212.999 973 213ZM956.5 208.5C956.5 208.203 956.588 207.913 956.753 207.667C956.918 207.42 957.152 207.228 957.426 207.114C957.7 207.001 958.002 206.971 958.293 207.029C958.584 207.087 958.851 207.23 959.061 207.439C959.27 207.649 959.413 207.916 959.471 208.207C959.529 208.498 959.499 208.8 959.386 209.074C959.272 209.348 959.08 209.582 958.833 209.747C958.587 209.912 958.297 210 958 210C957.602 210 957.221 209.841 956.94 209.56C956.659 209.279 956.5 208.898 956.5 208.5ZM958 225C957.703 225 957.413 224.912 957.167 224.747C956.92 224.582 956.728 224.348 956.614 224.074C956.501 223.8 956.471 223.498 956.529 223.207C956.587 222.916 956.73 222.649 956.939 222.439C957.149 222.23 957.416 222.087 957.707 222.029C957.998 221.971 958.3 222.001 958.574 222.114C958.848 222.228 959.082 222.42 959.247 222.667C959.412 222.913 959.5 223.203 959.5 223.5C959.5 223.898 959.341 224.279 959.06 224.56C958.779 224.841 958.398 225 958 225ZM964 217.5C963.703 217.5 963.413 217.412 963.167 217.247C962.92 217.082 962.728 216.848 962.614 216.574C962.501 216.3 962.471 215.998 962.529 215.707C962.587 215.416 962.73 215.149 962.939 214.939C963.149 214.73 963.416 214.587 963.707 214.529C963.998 214.471 964.3 214.501 964.574 214.614C964.848 214.728 965.082 214.92 965.247 215.167C965.412 215.413 965.5 215.703 965.5 216C965.5 216.398 965.341 216.779 965.06 217.06C964.779 217.341 964.398 217.5 964 217.5ZM973 217.5C972.703 217.5 972.413 217.412 972.167 217.247C971.92 217.082 971.728 216.848 971.614 216.574C971.501 216.3 971.471 215.998 971.529 215.707C971.587 215.416 971.73 215.149 971.939 214.939C972.149 214.73 972.416 214.587 972.707 214.529C972.998 214.471 973.3 214.501 973.574 214.614C973.848 214.728 974.082 214.92 974.247 215.167C974.412 215.413 974.5 215.703 974.5 216C974.5 216.398 974.341 216.779 974.06 217.06C973.779 217.341 973.398 217.5 973 217.5Z" fill="white"/>
</g>
<rect x="148.5" y="128.5" width="447" height="287" fill="white" fill-opacity="0.01" style="mix-blend-mode:multiply"/>
<rect x="148.5" y="128.5" width="447" height="287" stroke="#0F62FE"/>
<rect x="149" y="129" width="446" height="286" fill="white"/>
<rect x="149" y="129" width="446" height="286" fill="#EDF5FF"/>
<g clip-path="url(#clip4_1_8573)">
<text fill="black" xml:space="preserve" style="white-space: pre" font-family="IBM Plex Sans" font-size="14" font-weight="600" letter-spacing="0.16px"><tspan x="204" y="157.25">Event Gateway</tspan></text>
<g clip-path="url(#clip5_1_8573)">
<rect width="24" height="24" transform="translate(164 140)" fill="white" fill-opacity="0.01" style="mix-blend-mode:multiply"/>
<path d="M185.75 163.25C186.578 163.25 187.25 162.578 187.25 161.75C187.25 160.922 186.578 160.25 185.75 160.25C184.922 160.25 184.25 160.922 184.25 161.75C184.25 162.578 184.922 163.25 185.75 163.25Z" fill="black"/>
<path d="M182.75 162.5H176.75C175.923 162.5 175.25 161.827 175.25 161V158H176.75V161H182.75V162.5Z" fill="black"/>
<path d="M186.5 158.75H185V152.75H181.25V151.25H185C185.827 151.25 186.5 151.923 186.5 152.75V158.75Z" fill="black"/>
<path d="M179.311 150.939L177.061 148.689C176.778 148.406 176.401 148.25 176 148.25C175.599 148.25 175.223 148.406 174.939 148.689L172.689 150.939C172.397 151.232 172.25 151.616 172.25 152C172.25 152.384 172.397 152.768 172.689 153.061L174.939 155.311C175.223 155.594 175.599 155.75 176 155.75C176.401 155.75 176.777 155.594 177.061 155.311L179.311 153.061C179.603 152.768 179.75 152.384 179.75 152C179.75 151.616 179.603 151.232 179.311 150.939ZM176 154.25L173.75 152L176 149.75L178.25 152L176 154.25Z" fill="black"/>
<path d="M170.75 152.75H167C166.173 152.75 165.5 152.077 165.5 151.25V145.25H167V151.25H170.75V152.75Z" fill="black"/>
<path d="M176.75 146H175.25V143H169.25V141.5H175.25C176.077 141.5 176.75 142.173 176.75 143V146Z" fill="black"/>
<path d="M166.25 143.75C167.078 143.75 167.75 143.078 167.75 142.25C167.75 141.422 167.078 140.75 166.25 140.75C165.422 140.75 164.75 141.422 164.75 142.25C164.75 143.078 165.422 143.75 166.25 143.75Z" fill="black"/>
</g>
<line x1="150" y1="128" x2="150" y2="176" stroke="#0F62FE" stroke-width="4"/>
</g>
<rect x="213.5" y="304.5" width="319" height="47" fill="white" fill-opacity="0.01" style="mix-blend-mode:multiply"/>
<rect x="213.5" y="304.5" width="319" height="47" stroke="black"/>
<rect x="214" y="305" width="318" height="46" fill="white"/>
<g clip-path="url(#clip6_1_8573)">
<text fill="black" xml:space="preserve" style="white-space: pre" font-family="IBM Plex Sans" font-size="14" font-weight="600" letter-spacing="0.16px"><tspan x="269" y="333.25">Virtual topic</tspan></text>
<rect width="24" height="24" transform="translate(229 316)" fill="white" fill-opacity="0.01" style="mix-blend-mode:multiply"/>
<path d="M250 329.5H245.5C245.102 329.5 244.721 329.659 244.44 329.94C244.159 330.221 244 330.602 244 331V332.5H239.811L236.5 329.189V325H238C238.398 325 238.779 324.841 239.06 324.56C239.341 324.279 239.5 323.898 239.5 323.5V319C239.5 318.602 239.341 318.221 239.06 317.94C238.779 317.659 238.398 317.5 238 317.5H233.5C233.102 317.5 232.721 317.659 232.44 317.94C232.159 318.221 232 318.602 232 319V323.5C232 323.898 232.159 324.279 232.44 324.56C232.721 324.841 233.102 325 233.5 325H235V329.189L231.47 332.72C231.4 332.789 231.345 332.872 231.307 332.963C231.269 333.054 231.25 333.152 231.25 333.25C231.25 333.348 231.269 333.446 231.307 333.537C231.345 333.628 231.4 333.711 231.47 333.78L235.22 337.53C235.289 337.6 235.372 337.655 235.463 337.693C235.554 337.731 235.652 337.75 235.75 337.75C235.849 337.75 235.946 337.731 236.037 337.693C236.128 337.655 236.211 337.6 236.28 337.53L239.811 334H244V335.5C244 335.898 244.159 336.279 244.44 336.56C244.721 336.841 245.102 337 245.5 337H250C250.398 337 250.779 336.841 251.06 336.56C251.341 336.279 251.5 335.898 251.5 335.5V331C251.5 330.602 251.341 330.221 251.06 329.94C250.779 329.659 250.398 329.5 250 329.5ZM233.5 319H238V323.5H233.5V319ZM235.75 335.939L233.061 333.25L235.75 330.561L238.439 333.25L235.75 335.939ZM245.5 335.5V331H250V335.5H245.5Z" fill="black"/>
<line x1="215" y1="304" x2="215" y2="352" stroke="black" stroke-width="4"/>
</g>
<rect x="212.5" y="192.5" width="319" height="47" fill="white" fill-opacity="0.01" style="mix-blend-mode:multiply"/>
<rect x="212.5" y="192.5" width="319" height="47" stroke="#1192E8"/>
<rect x="213" y="193" width="318" height="46" fill="white"/>
<g clip-path="url(#clip7_1_8573)">
<text fill="black" xml:space="preserve" style="white-space: pre" font-family="IBM Plex Sans" font-size="14" font-weight="600" letter-spacing="0.16px"><tspan x="268" y="221.25">Event Gateway bootstrap server</tspan></text>
<g clip-path="url(#clip8_1_8573)">
<rect width="24" height="24" transform="translate(228 204)" fill="white" fill-opacity="0.01" style="mix-blend-mode:multiply"/>
<path d="M251.25 216C251.251 215.803 251.212 215.608 251.137 215.426C251.061 215.244 250.95 215.078 250.811 214.939L246.466 210.595L248.617 208.444C248.936 208.529 249.274 208.507 249.579 208.381C249.884 208.255 250.139 208.031 250.304 207.745C250.469 207.459 250.535 207.127 250.492 206.799C250.449 206.472 250.299 206.168 250.066 205.934C249.832 205.701 249.528 205.551 249.201 205.508C248.874 205.465 248.541 205.531 248.255 205.696C247.969 205.861 247.746 206.116 247.619 206.421C247.493 206.726 247.471 207.064 247.556 207.383L245.405 209.534L241.061 205.189C240.921 205.05 240.756 204.94 240.574 204.864C240.392 204.789 240.197 204.75 240 204.75C239.803 204.75 239.608 204.789 239.426 204.864C239.244 204.94 239.079 205.05 238.939 205.189L234.595 209.534L232.444 207.383C232.529 207.064 232.507 206.726 232.381 206.421C232.254 206.116 232.031 205.861 231.745 205.696C231.459 205.531 231.126 205.465 230.799 205.508C230.472 205.551 230.168 205.701 229.934 205.934C229.701 206.168 229.551 206.472 229.508 206.799C229.465 207.127 229.531 207.459 229.696 207.745C229.861 208.031 230.116 208.255 230.421 208.381C230.726 208.507 231.064 208.529 231.383 208.444L233.534 210.595L229.189 214.939C229.05 215.079 228.94 215.244 228.864 215.426C228.789 215.608 228.75 215.803 228.75 216C228.75 216.197 228.789 216.392 228.864 216.574C228.94 216.756 229.05 216.921 229.189 217.061L233.534 221.405L231.383 223.556C231.064 223.471 230.726 223.493 230.421 223.619C230.116 223.745 229.861 223.969 229.696 224.255C229.531 224.541 229.465 224.873 229.508 225.201C229.551 225.528 229.701 225.832 229.934 226.065C230.168 226.299 230.472 226.449 230.799 226.492C231.126 226.535 231.459 226.469 231.745 226.304C232.031 226.139 232.254 225.884 232.381 225.579C232.507 225.274 232.529 224.936 232.444 224.617L234.595 222.466L238.939 226.811C239.079 226.95 239.244 227.06 239.426 227.136C239.608 227.211 239.803 227.25 240 227.25C240.197 227.25 240.392 227.211 240.574 227.136C240.756 227.06 240.921 226.95 241.061 226.811L245.405 222.466L247.556 224.617C247.471 224.936 247.493 225.274 247.619 225.579C247.746 225.884 247.969 226.139 248.255 226.304C248.541 226.469 248.874 226.535 249.201 226.492C249.528 226.449 249.832 226.299 250.066 226.065C250.299 225.832 250.449 225.528 250.492 225.201C250.535 224.873 250.469 224.541 250.304 224.255C250.139 223.969 249.884 223.745 249.579 223.619C249.274 223.493 248.936 223.471 248.617 223.556L246.466 221.405L250.811 217.061C250.95 216.922 251.061 216.756 251.137 216.574C251.212 216.392 251.251 216.197 251.25 216ZM245.405 220.345L243.311 218.25L242.25 219.311L244.345 221.405L240 225.75L235.655 221.405L237.75 219.311L236.689 218.25L234.595 220.345L230.25 216L234.594 211.655L236.689 213.75L237.75 212.689L235.655 210.594L240 206.25L244.345 210.594L242.25 212.689L243.311 213.75L245.406 211.655L249.75 216L245.405 220.345Z" fill="black"/>
</g>
<line x1="214" y1="192" x2="214" y2="240" stroke="#1192E8" stroke-width="4"/>
</g>
<rect width="395" height="0" transform="translate(540 328)" fill="white" fill-opacity="0.01" style="mix-blend-mode:multiply"/>
<path d="M540 328H935" stroke="black" stroke-dasharray="4 4"/>
<rect width="8" height="8" transform="translate(540 332) rotate(-180)" fill="white" fill-opacity="0.01" style="mix-blend-mode:multiply"/>
<path d="M540 332L532 328L540 324L540 332Z" fill="black"/>
<rect width="8" height="8" transform="translate(932 324)" fill="white" fill-opacity="0.01" style="mix-blend-mode:multiply"/>
<path d="M932 324L940 328L932 332V324Z" fill="black"/>
<rect width="8" height="8" transform="translate(540 220) rotate(-180)" fill="white" fill-opacity="0.01" style="mix-blend-mode:multiply"/>
<path d="M540 220L532 216L540 212L540 220Z" fill="black"/>
<rect width="8" height="8" transform="translate(932 212)" fill="white" fill-opacity="0.01" style="mix-blend-mode:multiply"/>
<path d="M932 212L940 216L932 220L932 212Z" fill="black"/>
<path d="M537 216H734.5L936 216" stroke="black"/>
<rect x="700.5" y="208.5" width="73" height="15" rx="7.5" fill="white"/>
<rect x="700.5" y="208.5" width="73" height="15" rx="7.5" stroke="black"/>
<text fill="black" xml:space="preserve" style="white-space: pre" font-family="IBM Plex Sans" font-size="12" letter-spacing="0.32px"><tspan x="726" y="219.5">Access</tspan></text>
<rect x="664.5" y="320.5" width="144" height="15" rx="7.5" fill="white"/>
<rect x="664.5" y="320.5" width="144" height="15" rx="7.5" stroke="black"/>
<text fill="black" xml:space="preserve" style="white-space: pre" font-family="IBM Plex Sans" font-size="12" letter-spacing="0.32px"><tspan x="690" y="331.5">Consume / Produce</tspan></text>
<defs>
<clipPath id="clip0_1_8573">
<rect width="433" height="30" fill="white" transform="translate(100 80)"/>
</clipPath>
<clipPath id="clip1_1_8573">
<rect width="448" height="30" fill="white" transform="translate(876 128)"/>
</clipPath>
<clipPath id="clip2_1_8573">
<rect width="320" height="48" fill="white" transform="translate(940 304)"/>
</clipPath>
<clipPath id="clip3_1_8573">
<rect width="320" height="48" fill="white" transform="translate(940 192)"/>
</clipPath>
<clipPath id="clip4_1_8573">
<rect width="448" height="48" fill="white" transform="translate(148 128)"/>
</clipPath>
<clipPath id="clip5_1_8573">
<rect width="24" height="24" fill="white" transform="translate(164 140)"/>
</clipPath>
<clipPath id="clip6_1_8573">
<rect width="320" height="48" fill="white" transform="translate(213 304)"/>
</clipPath>
<clipPath id="clip7_1_8573">
<rect width="320" height="48" fill="white" transform="translate(212 192)"/>
</clipPath>
<clipPath id="clip8_1_8573">
<rect width="24" height="24" fill="white" transform="translate(228 204)"/>
</clipPath>
</defs>
</svg>
