<svg width="85px" height="32px" viewBox="0 0 85 32" fill="none" xmlns="http://www.w3.org/2000/svg">
<rect width="85" height="32.001" rx="16" fill="#D0E2FF"/>
<path d="M13.116 20V11.624H14.46L16.86 16.136H16.92L19.332 11.624H20.628V20H19.644V12.944H19.584L18.876 14.348L16.872 17.996L14.868 14.348L14.16 12.944H14.1V20H13.116ZM28.1183 20H27.5783C26.8703 20 26.5823 19.568 26.5103 18.992H26.4503C26.1863 19.748 25.5263 20.144 24.6623 20.144C23.3543 20.144 22.5863 19.424 22.5863 18.272C22.5863 17.108 23.4263 16.46 25.2263 16.46H26.4503V15.848C26.4503 14.972 25.9703 14.492 24.9863 14.492C24.2423 14.492 23.7503 14.852 23.4143 15.416L22.8383 14.876C23.1743 14.216 23.9183 13.664 25.0343 13.664C26.5223 13.664 27.4103 14.444 27.4103 15.752V19.16H28.1183V20ZM24.8183 19.328C25.7663 19.328 26.4503 18.836 26.4503 18.2V17.18H25.1783C24.0863 17.18 23.5943 17.516 23.5943 18.116V18.368C23.5943 18.98 24.0743 19.328 24.8183 19.328ZM30.2884 12.356C29.8804 12.356 29.7004 12.14 29.7004 11.816V11.66C29.7004 11.336 29.8804 11.12 30.2884 11.12C30.6964 11.12 30.8764 11.336 30.8764 11.66V11.816C30.8764 12.14 30.6964 12.356 30.2884 12.356ZM29.8084 20V13.808H30.7684V20H29.8084ZM34.0884 20H33.1284V13.808H34.0884V14.816H34.1364C34.4364 14.12 34.9644 13.664 35.8884 13.664C37.1604 13.664 37.9644 14.528 37.9644 16.028V20H37.0044V16.196C37.0044 15.092 36.5244 14.528 35.6004 14.528C34.8324 14.528 34.0884 14.912 34.0884 15.704V20ZM42.8368 20H41.6368C40.9768 20 40.6168 19.58 40.6168 18.98V14.648H39.5968V13.808H40.1728C40.5808 13.808 40.7128 13.664 40.7128 13.244V12.092H41.5768V13.808H42.9328V14.648H41.5768V19.16H42.8368V20ZM49.8358 20H49.2958C48.5878 20 48.2998 19.568 48.2278 18.992H48.1678C47.9038 19.748 47.2438 20.144 46.3798 20.144C45.0718 20.144 44.3038 19.424 44.3038 18.272C44.3038 17.108 45.1438 16.46 46.9438 16.46H48.1678V15.848C48.1678 14.972 47.6878 14.492 46.7038 14.492C45.9598 14.492 45.4678 14.852 45.1318 15.416L44.5558 14.876C44.8918 14.216 45.6358 13.664 46.7518 13.664C48.2398 13.664 49.1278 14.444 49.1278 15.752V19.16H49.8358V20ZM46.5358 19.328C47.4838 19.328 48.1678 18.836 48.1678 18.2V17.18H46.8958C45.8038 17.18 45.3118 17.516 45.3118 18.116V18.368C45.3118 18.98 45.7918 19.328 46.5358 19.328ZM52.0059 12.356C51.5979 12.356 51.4179 12.14 51.4179 11.816V11.66C51.4179 11.336 51.5979 11.12 52.0059 11.12C52.4139 11.12 52.5939 11.336 52.5939 11.66V11.816C52.5939 12.14 52.4139 12.356 52.0059 12.356ZM51.5259 20V13.808H52.4859V20H51.5259ZM55.8059 20H54.8459V13.808H55.8059V14.816H55.8539C56.1539 14.12 56.6819 13.664 57.6059 13.664C58.8779 13.664 59.6819 14.528 59.6819 16.028V20H58.7219V16.196C58.7219 15.092 58.2419 14.528 57.3179 14.528C56.5499 14.528 55.8059 14.912 55.8059 15.704V20ZM64.3143 20.144C62.6343 20.144 61.5303 18.872 61.5303 16.904C61.5303 14.936 62.6343 13.664 64.3143 13.664C65.9703 13.664 66.9903 14.936 66.9903 16.688V17.144H62.5383V17.432C62.5383 18.5 63.2223 19.304 64.3743 19.304C65.1543 19.304 65.7543 18.92 66.0783 18.236L66.7623 18.728C66.3663 19.568 65.4783 20.144 64.3143 20.144ZM64.3143 14.468C63.2703 14.468 62.5383 15.26 62.5383 16.34V16.424H65.9583V16.292C65.9583 15.2 65.2983 14.468 64.3143 14.468ZM69.8522 20H68.8922V13.808H69.8522V14.948H69.9122C70.1282 14.36 70.6922 13.808 71.7002 13.808H72.0722V14.768H71.5082C70.4762 14.768 69.8522 15.212 69.8522 15.8V20Z" fill="#0043CE"/>
<rect width="16.002" height="0.001" transform="translate(34.499 23)" fill="white" fill-opacity="0.01" style="mix-blend-mode:multiply"/>
</svg>
