<svg width="710" height="634" viewBox="0 0 710 634" fill="none" xmlns="http://www.w3.org/2000/svg">
<rect width="710" height="634" fill="white"/>
<rect x="264.5" y="327.5" width="181" height="127" fill="white" fill-opacity="0.01" style="mix-blend-mode:multiply"/>
<rect x="264.5" y="327.5" width="181" height="127" stroke="#A56EFF"/>
<rect x="265" y="328" width="180" height="126" fill="white"/>
<rect x="265" y="328" width="180" height="126" fill="#F6F2FF"/>
<g clip-path="url(#clip0_1_8624)">
<text fill="black" xml:space="preserve" style="white-space: pre" font-family="IBM Plex Sans" font-size="14" font-weight="600" letter-spacing="0.16px"><tspan x="280" y="356.25">Virtual topic</tspan></text>
<line x1="266" y1="327" x2="266" y2="375" stroke="#A56EFF" stroke-width="4"/>
</g>
<rect x="50.5" y="327.5" width="181" height="191" fill="white" fill-opacity="0.01" style="mix-blend-mode:multiply"/>
<rect x="50.5" y="327.5" width="181" height="191" stroke="#A56EFF"/>
<rect x="51" y="328" width="180" height="190" fill="white"/>
<rect x="51" y="328" width="180" height="190" fill="#F6F2FF"/>
<rect width="190" height="200" transform="translate(50 319)" fill="white" fill-opacity="0.01" style="mix-blend-mode:multiply"/>
<path d="M240 319H50V519H240V319Z" fill="white" fill-opacity="0.01" style="mix-blend-mode:multiply"/>
<path d="M54 323.5H235.5V515" stroke="#A56EFF"/>
<path d="M58 319.5H239.5V511" stroke="#A56EFF"/>
<g clip-path="url(#clip1_1_8624)">
<text fill="black" xml:space="preserve" style="white-space: pre" font-family="IBM Plex Sans" font-size="14" font-weight="600" letter-spacing="0.16px"><tspan x="66" y="356.25">Virtual topic</tspan></text>
<line x1="52" y1="327" x2="52" y2="375" stroke="#A56EFF" stroke-width="4"/>
</g>
<rect x="66.5" y="391.5" width="149" height="47" fill="white" fill-opacity="0.01" style="mix-blend-mode:multiply"/>
<rect x="66.5" y="391.5" width="149" height="47" stroke="black"/>
<rect x="67" y="392" width="148" height="46" fill="white"/>
<rect x="67" y="392" width="148" height="46" fill="#F2F4F8"/>
<g clip-path="url(#clip2_1_8624)">
<text fill="black" xml:space="preserve" style="white-space: pre" font-family="IBM Plex Sans" font-size="14" font-weight="600" letter-spacing="0.16px"><tspan x="82" y="420.25">Control</tspan></text>
<line x1="68" y1="391" x2="68" y2="439" stroke="black" stroke-width="4"/>
</g>
<rect x="66.5" y="455.5" width="149" height="47" fill="white" fill-opacity="0.01" style="mix-blend-mode:multiply"/>
<rect x="66.5" y="455.5" width="149" height="47" stroke="black"/>
<rect x="67" y="456" width="148" height="46" fill="white"/>
<rect x="67" y="456" width="148" height="46" fill="#F2F4F8"/>
<g clip-path="url(#clip3_1_8624)">
<text fill="black" xml:space="preserve" style="white-space: pre" font-family="IBM Plex Sans" font-size="14" font-weight="600" letter-spacing="0.16px"><tspan x="82" y="484.25">Control</tspan></text>
<line x1="68" y1="455" x2="68" y2="503" stroke="black" stroke-width="4"/>
</g>
<rect x="478.5" y="327.5" width="181" height="256" fill="white" fill-opacity="0.01" style="mix-blend-mode:multiply"/>
<rect x="478.5" y="327.5" width="181" height="256" stroke="#A56EFF"/>
<rect x="479" y="328" width="180" height="255" fill="white"/>
<rect x="479" y="328" width="180" height="255" fill="#F6F2FF"/>
<rect width="190" height="265" transform="translate(478 319)" fill="white" fill-opacity="0.01" style="mix-blend-mode:multiply"/>
<path d="M668 319H478V584H668V319Z" fill="white" fill-opacity="0.01" style="mix-blend-mode:multiply"/>
<path d="M482 323.5H663.5V580" stroke="#A56EFF"/>
<path d="M486 319.5H667.5V576" stroke="#A56EFF"/>
<g clip-path="url(#clip4_1_8624)">
<text fill="black" xml:space="preserve" style="white-space: pre" font-family="IBM Plex Sans" font-size="14" font-weight="600" letter-spacing="0.16px"><tspan x="494" y="356.25">Virtual topic</tspan></text>
<line x1="480" y1="327" x2="480" y2="375" stroke="#A56EFF" stroke-width="4"/>
</g>
<rect x="494.5" y="391.5" width="149" height="47" fill="white" fill-opacity="0.01" style="mix-blend-mode:multiply"/>
<rect x="494.5" y="391.5" width="149" height="47" stroke="black"/>
<rect x="495" y="392" width="148" height="46" fill="white"/>
<rect x="495" y="392" width="148" height="46" fill="#F2F4F8"/>
<g clip-path="url(#clip5_1_8624)">
<text fill="black" xml:space="preserve" style="white-space: pre" font-family="IBM Plex Sans" font-size="14" font-weight="600" letter-spacing="0.16px"><tspan x="510" y="420.25">Control</tspan></text>
<line x1="496" y1="391" x2="496" y2="439" stroke="black" stroke-width="4"/>
</g>
<rect x="494.5" y="455.5" width="149" height="47" fill="white" fill-opacity="0.01" style="mix-blend-mode:multiply"/>
<rect x="494.5" y="455.5" width="149" height="47" stroke="black"/>
<rect x="495" y="456" width="148" height="46" fill="white"/>
<rect x="495" y="456" width="148" height="46" fill="#F2F4F8"/>
<g clip-path="url(#clip6_1_8624)">
<text fill="black" xml:space="preserve" style="white-space: pre" font-family="IBM Plex Sans" font-size="14" font-weight="600" letter-spacing="0.16px"><tspan x="510" y="484.25">Control</tspan></text>
<line x1="496" y1="455" x2="496" y2="503" stroke="black" stroke-width="4"/>
</g>
<rect x="494.5" y="519.5" width="149" height="47" fill="white" fill-opacity="0.01" style="mix-blend-mode:multiply"/>
<rect x="494.5" y="519.5" width="149" height="47" stroke="black"/>
<rect x="495" y="520" width="148" height="46" fill="white"/>
<rect x="495" y="520" width="148" height="46" fill="#F2F4F8"/>
<g clip-path="url(#clip7_1_8624)">
<text fill="black" xml:space="preserve" style="white-space: pre" font-family="IBM Plex Sans" font-size="14" font-weight="600" letter-spacing="0.16px"><tspan x="510" y="548.25">Control</tspan></text>
<line x1="496" y1="519" x2="496" y2="567" stroke="black" stroke-width="4"/>
</g>
<rect x="240.5" y="50.5" width="229" height="47" fill="white" fill-opacity="0.01" style="mix-blend-mode:multiply"/>
<rect x="240.5" y="50.5" width="229" height="47" stroke="#009D9A"/>
<rect x="241" y="51" width="228" height="46" fill="white"/>
<rect x="241" y="51" width="228" height="46" fill="#D9FBFB"/>
<g clip-path="url(#clip8_1_8624)">
<text fill="black" xml:space="preserve" style="white-space: pre" font-family="IBM Plex Sans" font-size="14" font-weight="600" letter-spacing="0.16px"><tspan x="296" y="79.25">Source topic</tspan></text>
<rect width="24" height="24" transform="translate(256 62)" fill="white" fill-opacity="0.01" style="mix-blend-mode:multiply"/>
<path d="M274 69.5L272.939 70.5606L275.629 73.25H264.924C264.776 72.5302 264.42 71.8696 263.9 71.3499C263.38 70.8302 262.72 70.4742 262 70.3258V63.5H260.5V70.3258C259.653 70.4988 258.892 70.9589 258.345 71.6284C257.799 72.2979 257.5 73.1357 257.5 74C257.5 74.8643 257.799 75.7021 258.345 76.3716C258.892 77.0411 259.653 77.5012 260.5 77.6742V84.5H262V77.6742C262.72 77.5258 263.38 77.1698 263.9 76.6501C264.42 76.1304 264.776 75.4698 264.924 74.75H275.629L272.939 77.4394L274 78.5L278.5 74L274 69.5ZM261.25 76.25C260.805 76.25 260.37 76.118 260 75.8708C259.63 75.6236 259.342 75.2722 259.171 74.861C259.001 74.4499 258.956 73.9975 259.043 73.561C259.13 73.1246 259.344 72.7237 259.659 72.409C259.974 72.0943 260.375 71.88 260.811 71.7932C261.247 71.7064 261.7 71.751 262.111 71.9213C262.522 72.0916 262.874 72.38 263.121 72.75C263.368 73.12 263.5 73.555 263.5 74C263.499 74.5965 263.262 75.1685 262.84 75.5903C262.418 76.0121 261.846 76.2493 261.25 76.25Z" fill="black"/>
<line x1="242" y1="50" x2="242" y2="98" stroke="#009D9A" stroke-width="4"/>
</g>
<rect width="109" height="210" transform="translate(565 197) rotate(90)" fill="white" fill-opacity="0.01" style="mix-blend-mode:multiply"/>
<path d="M565 306L565 205C565 200.582 561.418 197 557 197L355 197" stroke="black"/>
<rect width="8" height="8" transform="translate(569 301) rotate(90)" fill="white" fill-opacity="0.01" style="mix-blend-mode:multiply"/>
<path d="M569 301L565 309L561 301L569 301Z" fill="black"/>
<rect width="109" height="210" transform="matrix(-6.29604e-08 1 1 3.03474e-08 145 197)" fill="white" fill-opacity="0.01" style="mix-blend-mode:multiply"/>
<path d="M145 306L145 205C145 200.582 148.582 197 153 197L355 197" stroke="black"/>
<rect width="8" height="8" transform="translate(149 301) rotate(90)" fill="white" fill-opacity="0.01" style="mix-blend-mode:multiply"/>
<path d="M149 301L145 309L141 301L149 301Z" fill="black"/>
<path d="M355 96.4022L355 145.348L355 303.598" stroke="black"/>
<rect width="8" height="8" transform="translate(359 102) rotate(-180)" fill="white" fill-opacity="0.01" style="mix-blend-mode:multiply"/>
<circle cx="355" cy="98" r="3.5" transform="rotate(-90 355 98)" fill="white" fill-opacity="0.01" style="mix-blend-mode:multiply"/>
<circle cx="355" cy="98" r="3.5" transform="rotate(-90 355 98)" stroke="black"/>
<path d="M352 98C352 96.3431 353.343 95 355 95C356.656 95 358 96.3431 358 98C358 99.6569 356.656 101 355 101C353.343 101 352 99.6569 352 98Z" fill="white"/>
<rect width="4.80453" height="8" transform="translate(359 301.195) rotate(90)" fill="white" fill-opacity="0.01" style="mix-blend-mode:multiply"/>
<path d="M359 301.195L355 309.195L351 301.195L359 301.195Z" fill="black"/>
<defs>
<clipPath id="clip0_1_8624">
<rect width="182" height="48" fill="white" transform="translate(264 327)"/>
</clipPath>
<clipPath id="clip1_1_8624">
<rect width="182" height="48" fill="white" transform="translate(50 327)"/>
</clipPath>
<clipPath id="clip2_1_8624">
<rect width="150" height="48" fill="white" transform="translate(66 391)"/>
</clipPath>
<clipPath id="clip3_1_8624">
<rect width="150" height="48" fill="white" transform="translate(66 455)"/>
</clipPath>
<clipPath id="clip4_1_8624">
<rect width="182" height="48" fill="white" transform="translate(478 327)"/>
</clipPath>
<clipPath id="clip5_1_8624">
<rect width="150" height="48" fill="white" transform="translate(494 391)"/>
</clipPath>
<clipPath id="clip6_1_8624">
<rect width="150" height="48" fill="white" transform="translate(494 455)"/>
</clipPath>
<clipPath id="clip7_1_8624">
<rect width="150" height="48" fill="white" transform="translate(494 519)"/>
</clipPath>
<clipPath id="clip8_1_8624">
<rect width="230" height="48" fill="white" transform="translate(240 50)"/>
</clipPath>
</defs>
</svg>
