<svg width="61" height="32" viewBox="0 0 61 32" fill="none" xmlns="http://www.w3.org/2000/svg">
<rect width="61" height="32.001" rx="16" fill="#D0E2FF"/>
<path d="M16.248 20.144C14.088 20.144 12.696 18.62 12.696 15.812C12.696 13.004 14.088 11.48 16.248 11.48C18.408 11.48 19.8 13.004 19.8 15.812C19.8 18.62 18.408 20.144 16.248 20.144ZM16.248 19.244C17.7 19.244 18.72 18.164 18.72 16.508V15.116C18.72 13.46 17.7 12.38 16.248 12.38C14.796 12.38 13.776 13.46 13.776 15.116V16.508C13.776 18.164 14.796 19.244 16.248 19.244ZM22.8441 20L21.1881 13.808H22.1241L22.7841 16.484L23.4441 19.196H23.4681L24.2241 16.484L25.0041 13.808H25.8561L26.6601 16.484L27.4281 19.196H27.4521L28.0881 16.484L28.7601 13.808H29.6601L28.0161 20H26.8281L25.9641 17.024L25.4241 15.14H25.4001L24.8721 17.024L24.0081 20H22.8441ZM32.327 20H31.367V13.808H32.327V14.816H32.375C32.675 14.12 33.203 13.664 34.127 13.664C35.399 13.664 36.203 14.528 36.203 16.028V20H35.243V16.196C35.243 15.092 34.763 14.528 33.839 14.528C33.071 14.528 32.327 14.912 32.327 15.704V20ZM40.8353 20.144C39.1553 20.144 38.0513 18.872 38.0513 16.904C38.0513 14.936 39.1553 13.664 40.8353 13.664C42.4913 13.664 43.5113 14.936 43.5113 16.688V17.144H39.0593V17.432C39.0593 18.5 39.7433 19.304 40.8953 19.304C41.6753 19.304 42.2753 18.92 42.5993 18.236L43.2833 18.728C42.8873 19.568 41.9993 20.144 40.8353 20.144ZM40.8353 14.468C39.7913 14.468 39.0593 15.26 39.0593 16.34V16.424H42.4793V16.292C42.4793 15.2 41.8193 14.468 40.8353 14.468ZM46.3733 20H45.4133V13.808H46.3733V14.948H46.4333C46.6493 14.36 47.2133 13.808 48.2213 13.808H48.5933V14.768H48.0293C46.9973 14.768 46.3733 15.212 46.3733 15.8V20Z" fill="#0043CE"/>
<rect width="16.002" height="0.001" transform="translate(22.499 23)" fill="white" fill-opacity="0.01" style="mix-blend-mode:multiply"/>
</svg>
