<svg width="800" height="500" viewBox="0 0 800 500" fill="none" xmlns="http://www.w3.org/2000/svg">
<rect width="800" height="500" fill="white"/>
<path d="M540 159L260 250L540 68L260 122L540 159ZM540 159L260 378.5L540 250" stroke="black"/>
<path d="M540 432L260 378.5M540 432L260 250.5M540 432L260 122M260 378.5L540 341M260 378.5L540 68.5M540 341L260 250.5M540 341L260 122M260 250.5L540 250L260 122" stroke="black"/>
<rect x="540.5" y="44.5" width="149" height="47" fill="white"/>
<rect x="540.5" y="44.5" width="149" height="47" stroke="#A56EFF"/>
<rect x="541" y="45" width="148" height="46" fill="white"/>
<rect x="541" y="45" width="148" height="46" fill="#F6F2FF"/>
<g clip-path="url(#clip0_107_5632)">
<path d="M608.942 73.168C606.366 73.168 604.728 71.474 604.728 68.184C604.728 64.894 606.366 63.06 608.942 63.06C610.692 63.06 611.826 63.802 612.512 65.314L610.93 66.154C610.65 65.286 610.034 64.698 608.942 64.698C607.57 64.698 606.688 65.692 606.688 67.358V68.898C606.688 70.578 607.57 71.53 608.942 71.53C610.048 71.53 610.734 70.858 611.056 69.976L612.554 70.858C611.854 72.314 610.692 73.168 608.942 73.168ZM616.936 73H615.97C614.752 73 614.178 72.356 614.178 71.236V62.64H615.97V71.572H616.936V73ZM619.35 64.628C618.608 64.628 618.3 64.25 618.3 63.732V63.452C618.3 62.934 618.608 62.556 619.35 62.556C620.078 62.556 620.4 62.934 620.4 63.452V63.732C620.4 64.25 620.078 64.628 619.35 64.628ZM618.454 73V65.692H620.246V73H618.454ZM625.437 73.168C623.281 73.168 621.993 71.67 621.993 69.332C621.993 67.022 623.239 65.524 625.381 65.524C627.663 65.524 628.713 67.204 628.713 69.206V69.794H623.855V69.976C623.855 71.026 624.457 71.74 625.633 71.74C626.515 71.74 627.047 71.32 627.495 70.746L628.461 71.824C627.859 72.65 626.795 73.168 625.437 73.168ZM625.409 66.868C624.471 66.868 623.855 67.568 623.855 68.576V68.688H626.851V68.562C626.851 67.554 626.333 66.868 625.409 66.868ZM632.241 73H630.449V65.692H632.241V66.91H632.311C632.605 66.126 633.221 65.524 634.355 65.524C635.853 65.524 636.693 66.56 636.693 68.38V73H634.901V68.562C634.901 67.526 634.551 66.994 633.697 66.994C632.955 66.994 632.241 67.386 632.241 68.17V73ZM641.122 73C639.89 73 639.232 72.328 639.232 71.138V67.12H638.154V65.692H638.714C639.246 65.692 639.414 65.44 639.414 64.936V63.69H641.024V65.692H642.522V67.12H641.024V71.572H642.41V73H641.122ZM654.677 73H647.943V71.502H650.631V64.558H650.505L648.377 67.078L647.229 66.112L649.651 63.228H652.437V71.502H654.677V73Z" fill="black"/>
<path d="M540 44H588V92H540V44Z" fill="white"/>
<path d="M540 44H588V92H540V44Z" fill="#F6F2FF"/>
<path d="M540.5 44.5V91.5H587.5V44.5H540.5Z" stroke="#A56EFF"/>
<rect width="24" height="24" transform="translate(552 56)" fill="white" fill-opacity="0.01"/>
<path d="M564 59C564.742 59 565.467 59.2199 566.083 59.632C566.7 60.044 567.181 60.6297 567.465 61.3149C567.748 62.0002 567.823 62.7542 567.678 63.4816C567.533 64.209 567.176 64.8772 566.652 65.4017C566.127 65.9261 565.459 66.2833 564.732 66.4279C564.004 66.5726 563.25 66.4984 562.565 66.2145C561.88 65.9307 561.294 65.4501 560.882 64.8334C560.47 64.2167 560.25 63.4917 560.25 62.75C560.25 61.7554 560.645 60.8016 561.348 60.0983C562.052 59.3951 563.005 59 564 59ZM564 57.5C562.962 57.5 561.947 57.8079 561.083 58.3848C560.22 58.9617 559.547 59.7816 559.15 60.7409C558.752 61.7002 558.648 62.7558 558.851 63.7742C559.053 64.7926 559.553 65.7281 560.288 66.4623C561.022 67.1965 561.957 67.6965 562.976 67.8991C563.994 68.1017 565.05 67.9977 566.009 67.6004C566.968 67.203 567.788 66.5301 568.365 65.6667C568.942 64.8034 569.25 63.7884 569.25 62.75C569.25 61.3576 568.697 60.0223 567.712 59.0377C566.728 58.0531 565.392 57.5 564 57.5Z" fill="#161616"/>
<path d="M571.5 78.5H570V74.75C570 74.2575 569.903 73.7699 569.715 73.3149C569.526 72.86 569.25 72.4466 568.902 72.0983C568.553 71.7501 568.14 71.4739 567.685 71.2855C567.23 71.097 566.742 71 566.25 71H561.75C560.755 71 559.802 71.3951 559.098 72.0983C558.395 72.8016 558 73.7554 558 74.75V78.5H556.5V74.75C556.5 73.3576 557.053 72.0223 558.038 71.0377C559.022 70.0531 560.358 69.5 561.75 69.5H566.25C567.642 69.5 568.978 70.0531 569.962 71.0377C570.947 72.0223 571.5 73.3576 571.5 74.75V78.5Z" fill="#161616"/>
</g>
<rect x="540.5" y="135.5" width="149" height="47" fill="white"/>
<rect x="540.5" y="135.5" width="149" height="47" stroke="#A56EFF"/>
<rect x="541" y="136" width="148" height="46" fill="white"/>
<rect x="541" y="136" width="148" height="46" fill="#F6F2FF"/>
<g clip-path="url(#clip1_107_5632)">
<path d="M608.942 164.168C606.366 164.168 604.728 162.474 604.728 159.184C604.728 155.894 606.366 154.06 608.942 154.06C610.692 154.06 611.826 154.802 612.512 156.314L610.93 157.154C610.65 156.286 610.034 155.698 608.942 155.698C607.57 155.698 606.688 156.692 606.688 158.358V159.898C606.688 161.578 607.57 162.53 608.942 162.53C610.048 162.53 610.734 161.858 611.056 160.976L612.554 161.858C611.854 163.314 610.692 164.168 608.942 164.168ZM616.936 164H615.97C614.752 164 614.178 163.356 614.178 162.236V153.64H615.97V162.572H616.936V164ZM619.35 155.628C618.608 155.628 618.3 155.25 618.3 154.732V154.452C618.3 153.934 618.608 153.556 619.35 153.556C620.078 153.556 620.4 153.934 620.4 154.452V154.732C620.4 155.25 620.078 155.628 619.35 155.628ZM618.454 164V156.692H620.246V164H618.454ZM625.437 164.168C623.281 164.168 621.993 162.67 621.993 160.332C621.993 158.022 623.239 156.524 625.381 156.524C627.663 156.524 628.713 158.204 628.713 160.206V160.794H623.855V160.976C623.855 162.026 624.457 162.74 625.633 162.74C626.515 162.74 627.047 162.32 627.495 161.746L628.461 162.824C627.859 163.65 626.795 164.168 625.437 164.168ZM625.409 157.868C624.471 157.868 623.855 158.568 623.855 159.576V159.688H626.851V159.562C626.851 158.554 626.333 157.868 625.409 157.868ZM632.241 164H630.449V156.692H632.241V157.91H632.311C632.605 157.126 633.221 156.524 634.355 156.524C635.853 156.524 636.693 157.56 636.693 159.38V164H634.901V159.562C634.901 158.526 634.551 157.994 633.697 157.994C632.955 157.994 632.241 158.386 632.241 159.17V164ZM641.122 164C639.89 164 639.232 163.328 639.232 162.138V158.12H638.154V156.692H638.714C639.246 156.692 639.414 156.44 639.414 155.936V154.69H641.024V156.692H642.522V158.12H641.024V162.572H642.41V164H641.122ZM654.313 162.446V164H647.537V162.292L650.603 159.604C651.639 158.694 652.115 158.022 652.115 157.168V156.986C652.115 156.132 651.471 155.656 650.673 155.656C649.665 155.656 649.189 156.314 648.965 157.112L647.369 156.496C647.789 155.194 648.839 154.06 650.827 154.06C652.885 154.06 654.061 155.292 654.061 156.972C654.061 158.596 652.955 159.632 651.597 160.752L649.539 162.446H654.313Z" fill="black"/>
<path d="M540 135H588V183H540V135Z" fill="white"/>
<path d="M540 135H588V183H540V135Z" fill="#F6F2FF"/>
<path d="M540.5 135.5V182.5H587.5V135.5H540.5Z" stroke="#A56EFF"/>
<rect width="24" height="24" transform="translate(552 147)" fill="white" fill-opacity="0.01"/>
<path d="M564 150C564.742 150 565.467 150.22 566.083 150.632C566.7 151.044 567.181 151.63 567.465 152.315C567.748 153 567.823 153.754 567.678 154.482C567.533 155.209 567.176 155.877 566.652 156.402C566.127 156.926 565.459 157.283 564.732 157.428C564.004 157.573 563.25 157.498 562.565 157.215C561.88 156.931 561.294 156.45 560.882 155.833C560.47 155.217 560.25 154.492 560.25 153.75C560.25 152.755 560.645 151.802 561.348 151.098C562.052 150.395 563.005 150 564 150ZM564 148.5C562.962 148.5 561.947 148.808 561.083 149.385C560.22 149.962 559.547 150.782 559.15 151.741C558.752 152.7 558.648 153.756 558.851 154.774C559.053 155.793 559.553 156.728 560.288 157.462C561.022 158.197 561.957 158.697 562.976 158.899C563.994 159.102 565.05 158.998 566.009 158.6C566.968 158.203 567.788 157.53 568.365 156.667C568.942 155.803 569.25 154.788 569.25 153.75C569.25 152.358 568.697 151.022 567.712 150.038C566.728 149.053 565.392 148.5 564 148.5Z" fill="#161616"/>
<path d="M571.5 169.5H570V165.75C570 165.258 569.903 164.77 569.715 164.315C569.526 163.86 569.25 163.447 568.902 163.098C568.553 162.75 568.14 162.474 567.685 162.285C567.23 162.097 566.742 162 566.25 162H561.75C560.755 162 559.802 162.395 559.098 163.098C558.395 163.802 558 164.755 558 165.75V169.5H556.5V165.75C556.5 164.358 557.053 163.022 558.038 162.038C559.022 161.053 560.358 160.5 561.75 160.5H566.25C567.642 160.5 568.978 161.053 569.962 162.038C570.947 163.022 571.5 164.358 571.5 165.75V169.5Z" fill="#161616"/>
</g>
<rect x="540.5" y="226.5" width="149" height="47" fill="white"/>
<rect x="540.5" y="226.5" width="149" height="47" stroke="#A56EFF"/>
<rect x="541" y="227" width="148" height="46" fill="white"/>
<rect x="541" y="227" width="148" height="46" fill="#F6F2FF"/>
<g clip-path="url(#clip2_107_5632)">
<path d="M608.942 255.168C606.366 255.168 604.728 253.474 604.728 250.184C604.728 246.894 606.366 245.06 608.942 245.06C610.692 245.06 611.826 245.802 612.512 247.314L610.93 248.154C610.65 247.286 610.034 246.698 608.942 246.698C607.57 246.698 606.688 247.692 606.688 249.358V250.898C606.688 252.578 607.57 253.53 608.942 253.53C610.048 253.53 610.734 252.858 611.056 251.976L612.554 252.858C611.854 254.314 610.692 255.168 608.942 255.168ZM616.936 255H615.97C614.752 255 614.178 254.356 614.178 253.236V244.64H615.97V253.572H616.936V255ZM619.35 246.628C618.608 246.628 618.3 246.25 618.3 245.732V245.452C618.3 244.934 618.608 244.556 619.35 244.556C620.078 244.556 620.4 244.934 620.4 245.452V245.732C620.4 246.25 620.078 246.628 619.35 246.628ZM618.454 255V247.692H620.246V255H618.454ZM625.437 255.168C623.281 255.168 621.993 253.67 621.993 251.332C621.993 249.022 623.239 247.524 625.381 247.524C627.663 247.524 628.713 249.204 628.713 251.206V251.794H623.855V251.976C623.855 253.026 624.457 253.74 625.633 253.74C626.515 253.74 627.047 253.32 627.495 252.746L628.461 253.824C627.859 254.65 626.795 255.168 625.437 255.168ZM625.409 248.868C624.471 248.868 623.855 249.568 623.855 250.576V250.688H626.851V250.562C626.851 249.554 626.333 248.868 625.409 248.868ZM632.241 255H630.449V247.692H632.241V248.91H632.311C632.605 248.126 633.221 247.524 634.355 247.524C635.853 247.524 636.693 248.56 636.693 250.38V255H634.901V250.562C634.901 249.526 634.551 248.994 633.697 248.994C632.955 248.994 632.241 249.386 632.241 250.17V255ZM641.122 255C639.89 255 639.232 254.328 639.232 253.138V249.12H638.154V247.692H638.714C639.246 247.692 639.414 247.44 639.414 246.936V245.69H641.024V247.692H642.522V249.12H641.024V253.572H642.41V255H641.122ZM649.371 249.176H650.337C651.457 249.176 651.975 248.658 651.975 247.958V247.86C651.975 247.062 651.415 246.572 650.533 246.572C649.679 246.572 649.007 247.006 648.531 247.748L647.355 246.684C648.013 245.774 648.937 245.06 650.589 245.06C652.563 245.06 653.907 246.04 653.907 247.608C653.907 248.868 653.053 249.624 652.031 249.834V249.918C653.165 250.128 654.075 250.912 654.075 252.298C654.075 254.02 652.633 255.168 650.477 255.168C648.573 255.168 647.621 254.3 647.005 253.348L648.363 252.312C648.797 253.096 649.385 253.656 650.477 253.656C651.555 253.656 652.157 253.096 652.157 252.186V252.088C652.157 251.192 651.499 250.716 650.337 250.716H649.371V249.176Z" fill="black"/>
<path d="M540 226H588V274H540V226Z" fill="white"/>
<path d="M540 226H588V274H540V226Z" fill="#F6F2FF"/>
<path d="M540.5 226.5V273.5H587.5V226.5H540.5Z" stroke="#A56EFF"/>
<rect width="24" height="24" transform="translate(552 238)" fill="white" fill-opacity="0.01"/>
<path d="M564 241C564.742 241 565.467 241.22 566.083 241.632C566.7 242.044 567.181 242.63 567.465 243.315C567.748 244 567.823 244.754 567.678 245.482C567.533 246.209 567.176 246.877 566.652 247.402C566.127 247.926 565.459 248.283 564.732 248.428C564.004 248.573 563.25 248.498 562.565 248.215C561.88 247.931 561.294 247.45 560.882 246.833C560.47 246.217 560.25 245.492 560.25 244.75C560.25 243.755 560.645 242.802 561.348 242.098C562.052 241.395 563.005 241 564 241ZM564 239.5C562.962 239.5 561.947 239.808 561.083 240.385C560.22 240.962 559.547 241.782 559.15 242.741C558.752 243.7 558.648 244.756 558.851 245.774C559.053 246.793 559.553 247.728 560.288 248.462C561.022 249.197 561.957 249.697 562.976 249.899C563.994 250.102 565.05 249.998 566.009 249.6C566.968 249.203 567.788 248.53 568.365 247.667C568.942 246.803 569.25 245.788 569.25 244.75C569.25 243.358 568.697 242.022 567.712 241.038C566.728 240.053 565.392 239.5 564 239.5Z" fill="#161616"/>
<path d="M571.5 260.5H570V256.75C570 256.258 569.903 255.77 569.715 255.315C569.526 254.86 569.25 254.447 568.902 254.098C568.553 253.75 568.14 253.474 567.685 253.285C567.23 253.097 566.742 253 566.25 253H561.75C560.755 253 559.802 253.395 559.098 254.098C558.395 254.802 558 255.755 558 256.75V260.5H556.5V256.75C556.5 255.358 557.053 254.022 558.038 253.038C559.022 252.053 560.358 251.5 561.75 251.5H566.25C567.642 251.5 568.978 252.053 569.962 253.038C570.947 254.022 571.5 255.358 571.5 256.75V260.5Z" fill="#161616"/>
</g>
<rect x="540.5" y="317.5" width="149" height="47" fill="white"/>
<rect x="540.5" y="317.5" width="149" height="47" stroke="#A56EFF"/>
<rect x="541" y="318" width="148" height="46" fill="white"/>
<rect x="541" y="318" width="148" height="46" fill="#F6F2FF"/>
<g clip-path="url(#clip3_107_5632)">
<path d="M608.942 346.168C606.366 346.168 604.728 344.474 604.728 341.184C604.728 337.894 606.366 336.06 608.942 336.06C610.692 336.06 611.826 336.802 612.512 338.314L610.93 339.154C610.65 338.286 610.034 337.698 608.942 337.698C607.57 337.698 606.688 338.692 606.688 340.358V341.898C606.688 343.578 607.57 344.53 608.942 344.53C610.048 344.53 610.734 343.858 611.056 342.976L612.554 343.858C611.854 345.314 610.692 346.168 608.942 346.168ZM616.936 346H615.97C614.752 346 614.178 345.356 614.178 344.236V335.64H615.97V344.572H616.936V346ZM619.35 337.628C618.608 337.628 618.3 337.25 618.3 336.732V336.452C618.3 335.934 618.608 335.556 619.35 335.556C620.078 335.556 620.4 335.934 620.4 336.452V336.732C620.4 337.25 620.078 337.628 619.35 337.628ZM618.454 346V338.692H620.246V346H618.454ZM625.437 346.168C623.281 346.168 621.993 344.67 621.993 342.332C621.993 340.022 623.239 338.524 625.381 338.524C627.663 338.524 628.713 340.204 628.713 342.206V342.794H623.855V342.976C623.855 344.026 624.457 344.74 625.633 344.74C626.515 344.74 627.047 344.32 627.495 343.746L628.461 344.824C627.859 345.65 626.795 346.168 625.437 346.168ZM625.409 339.868C624.471 339.868 623.855 340.568 623.855 341.576V341.688H626.851V341.562C626.851 340.554 626.333 339.868 625.409 339.868ZM632.241 346H630.449V338.692H632.241V339.91H632.311C632.605 339.126 633.221 338.524 634.355 338.524C635.853 338.524 636.693 339.56 636.693 341.38V346H634.901V341.562C634.901 340.526 634.551 339.994 633.697 339.994C632.955 339.994 632.241 340.386 632.241 341.17V346ZM641.122 346C639.89 346 639.232 345.328 639.232 344.138V340.12H638.154V338.692H638.714C639.246 338.692 639.414 338.44 639.414 337.936V336.69H641.024V338.692H642.522V340.12H641.024V344.572H642.41V346H641.122ZM653.291 346H651.541V344.11H647.117V342.542L651.009 336.228H653.291V342.682H654.565V344.11H653.291V346ZM651.429 338.02L648.629 342.682H651.541V338.02H651.429Z" fill="black"/>
<path d="M540 317H588V365H540V317Z" fill="white"/>
<path d="M540 317H588V365H540V317Z" fill="#F6F2FF"/>
<path d="M540.5 317.5V364.5H587.5V317.5H540.5Z" stroke="#A56EFF"/>
<rect width="24" height="24" transform="translate(552 329)" fill="white" fill-opacity="0.01"/>
<path d="M564 332C564.742 332 565.467 332.22 566.083 332.632C566.7 333.044 567.181 333.63 567.465 334.315C567.748 335 567.823 335.754 567.678 336.482C567.533 337.209 567.176 337.877 566.652 338.402C566.127 338.926 565.459 339.283 564.732 339.428C564.004 339.573 563.25 339.498 562.565 339.215C561.88 338.931 561.294 338.45 560.882 337.833C560.47 337.217 560.25 336.492 560.25 335.75C560.25 334.755 560.645 333.802 561.348 333.098C562.052 332.395 563.005 332 564 332ZM564 330.5C562.962 330.5 561.947 330.808 561.083 331.385C560.22 331.962 559.547 332.782 559.15 333.741C558.752 334.7 558.648 335.756 558.851 336.774C559.053 337.793 559.553 338.728 560.288 339.462C561.022 340.197 561.957 340.697 562.976 340.899C563.994 341.102 565.05 340.998 566.009 340.6C566.968 340.203 567.788 339.53 568.365 338.667C568.942 337.803 569.25 336.788 569.25 335.75C569.25 334.358 568.697 333.022 567.712 332.038C566.728 331.053 565.392 330.5 564 330.5Z" fill="#161616"/>
<path d="M571.5 351.5H570V347.75C570 347.258 569.903 346.77 569.715 346.315C569.526 345.86 569.25 345.447 568.902 345.098C568.553 344.75 568.14 344.474 567.685 344.285C567.23 344.097 566.742 344 566.25 344H561.75C560.755 344 559.802 344.395 559.098 345.098C558.395 345.802 558 346.755 558 347.75V351.5H556.5V347.75C556.5 346.358 557.053 345.022 558.038 344.038C559.022 343.053 560.358 342.5 561.75 342.5H566.25C567.642 342.5 568.978 343.053 569.962 344.038C570.947 345.022 571.5 346.358 571.5 347.75V351.5Z" fill="#161616"/>
</g>
<rect x="540.5" y="408.5" width="149" height="47" fill="white"/>
<rect x="540.5" y="408.5" width="149" height="47" stroke="#A56EFF"/>
<rect x="541" y="409" width="148" height="46" fill="white"/>
<rect x="541" y="409" width="148" height="46" fill="#F6F2FF"/>
<g clip-path="url(#clip4_107_5632)">
<path d="M608.942 437.168C606.366 437.168 604.728 435.474 604.728 432.184C604.728 428.894 606.366 427.06 608.942 427.06C610.692 427.06 611.826 427.802 612.512 429.314L610.93 430.154C610.65 429.286 610.034 428.698 608.942 428.698C607.57 428.698 606.688 429.692 606.688 431.358V432.898C606.688 434.578 607.57 435.53 608.942 435.53C610.048 435.53 610.734 434.858 611.056 433.976L612.554 434.858C611.854 436.314 610.692 437.168 608.942 437.168ZM616.936 437H615.97C614.752 437 614.178 436.356 614.178 435.236V426.64H615.97V435.572H616.936V437ZM619.35 428.628C618.608 428.628 618.3 428.25 618.3 427.732V427.452C618.3 426.934 618.608 426.556 619.35 426.556C620.078 426.556 620.4 426.934 620.4 427.452V427.732C620.4 428.25 620.078 428.628 619.35 428.628ZM618.454 437V429.692H620.246V437H618.454ZM625.437 437.168C623.281 437.168 621.993 435.67 621.993 433.332C621.993 431.022 623.239 429.524 625.381 429.524C627.663 429.524 628.713 431.204 628.713 433.206V433.794H623.855V433.976C623.855 435.026 624.457 435.74 625.633 435.74C626.515 435.74 627.047 435.32 627.495 434.746L628.461 435.824C627.859 436.65 626.795 437.168 625.437 437.168ZM625.409 430.868C624.471 430.868 623.855 431.568 623.855 432.576V432.688H626.851V432.562C626.851 431.554 626.333 430.868 625.409 430.868ZM632.241 437H630.449V429.692H632.241V430.91H632.311C632.605 430.126 633.221 429.524 634.355 429.524C635.853 429.524 636.693 430.56 636.693 432.38V437H634.901V432.562C634.901 431.526 634.551 430.994 633.697 430.994C632.955 430.994 632.241 431.386 632.241 432.17V437ZM641.122 437C639.89 437 639.232 436.328 639.232 435.138V431.12H638.154V429.692H638.714C639.246 429.692 639.414 429.44 639.414 428.936V427.69H641.024V429.692H642.522V431.12H641.024V435.572H642.41V437H641.122ZM653.879 427.228V428.824H649.483L649.259 432.1H649.357C649.777 431.26 650.253 430.686 651.429 430.686C653.109 430.686 654.411 431.834 654.411 433.78C654.411 435.74 653.109 437.168 650.799 437.168C648.993 437.168 648.027 436.3 647.439 435.348L648.783 434.312C649.217 435.068 649.749 435.656 650.813 435.656C651.905 435.656 652.493 434.998 652.493 433.934V433.822C652.493 432.814 651.877 432.198 650.855 432.198C650.057 432.198 649.567 432.576 649.273 432.926L647.761 432.716L648.125 427.228H653.879Z" fill="black"/>
<path d="M540 408H588V456H540V408Z" fill="white"/>
<path d="M540 408H588V456H540V408Z" fill="#F6F2FF"/>
<path d="M540.5 408.5V455.5H587.5V408.5H540.5Z" stroke="#A56EFF"/>
<rect width="24" height="24" transform="translate(552 420)" fill="white" fill-opacity="0.01"/>
<path d="M564 423C564.742 423 565.467 423.22 566.083 423.632C566.7 424.044 567.181 424.63 567.465 425.315C567.748 426 567.823 426.754 567.678 427.482C567.533 428.209 567.176 428.877 566.652 429.402C566.127 429.926 565.459 430.283 564.732 430.428C564.004 430.573 563.25 430.498 562.565 430.215C561.88 429.931 561.294 429.45 560.882 428.833C560.47 428.217 560.25 427.492 560.25 426.75C560.25 425.755 560.645 424.802 561.348 424.098C562.052 423.395 563.005 423 564 423ZM564 421.5C562.962 421.5 561.947 421.808 561.083 422.385C560.22 422.962 559.547 423.782 559.15 424.741C558.752 425.7 558.648 426.756 558.851 427.774C559.053 428.793 559.553 429.728 560.288 430.462C561.022 431.197 561.957 431.697 562.976 431.899C563.994 432.102 565.05 431.998 566.009 431.6C566.968 431.203 567.788 430.53 568.365 429.667C568.942 428.803 569.25 427.788 569.25 426.75C569.25 425.358 568.697 424.022 567.712 423.038C566.728 422.053 565.392 421.5 564 421.5Z" fill="#161616"/>
<path d="M571.5 442.5H570V438.75C570 438.258 569.903 437.77 569.715 437.315C569.526 436.86 569.25 436.447 568.902 436.098C568.553 435.75 568.14 435.474 567.685 435.285C567.23 435.097 566.742 435 566.25 435H561.75C560.755 435 559.802 435.395 559.098 436.098C558.395 436.802 558 437.755 558 438.75V442.5H556.5V438.75C556.5 437.358 557.053 436.022 558.038 435.038C559.022 434.053 560.358 433.5 561.75 433.5H566.25C567.642 433.5 568.978 434.053 569.962 435.038C570.947 436.022 571.5 437.358 571.5 438.75V442.5Z" fill="#161616"/>
</g>
<rect width="8" height="8" transform="translate(544 64) rotate(90)" fill="white" fill-opacity="0.01" style="mix-blend-mode:multiply"/>
<circle cx="540" cy="68" r="3.5" transform="rotate(-180 540 68)" fill="white" fill-opacity="0.01" style="mix-blend-mode:multiply"/>
<circle cx="540" cy="68" r="3.5" transform="rotate(-180 540 68)" stroke="black"/>
<path d="M540 71C538.343 71 537 69.6569 537 68C537 66.3431 538.343 65 540 65C541.657 65 543 66.3431 543 68C543 69.6569 541.657 71 540 71Z" fill="white"/>
<rect width="8" height="8" transform="translate(544 155) rotate(90)" fill="white" fill-opacity="0.01" style="mix-blend-mode:multiply"/>
<circle cx="540" cy="159" r="3.5" transform="rotate(-180 540 159)" fill="white" fill-opacity="0.01" style="mix-blend-mode:multiply"/>
<circle cx="540" cy="159" r="3.5" transform="rotate(-180 540 159)" stroke="black"/>
<path d="M540 162C538.343 162 537 160.657 537 159C537 157.343 538.343 156 540 156C541.657 156 543 157.343 543 159C543 160.657 541.657 162 540 162Z" fill="white"/>
<rect width="8" height="8" transform="translate(544 246) rotate(90)" fill="white" fill-opacity="0.01" style="mix-blend-mode:multiply"/>
<circle cx="540" cy="250" r="3.5" transform="rotate(-180 540 250)" fill="white" fill-opacity="0.01" style="mix-blend-mode:multiply"/>
<circle cx="540" cy="250" r="3.5" transform="rotate(-180 540 250)" stroke="black"/>
<path d="M540 253C538.343 253 537 251.657 537 250C537 248.343 538.343 247 540 247C541.657 247 543 248.343 543 250C543 251.657 541.657 253 540 253Z" fill="white"/>
<rect width="8" height="8" transform="translate(544 337) rotate(90)" fill="white" fill-opacity="0.01" style="mix-blend-mode:multiply"/>
<circle cx="540" cy="341" r="3.5" transform="rotate(-180 540 341)" fill="white" fill-opacity="0.01" style="mix-blend-mode:multiply"/>
<circle cx="540" cy="341" r="3.5" transform="rotate(-180 540 341)" stroke="black"/>
<path d="M540 344C538.343 344 537 342.657 537 341C537 339.343 538.343 338 540 338C541.657 338 543 339.343 543 341C543 342.657 541.657 344 540 344Z" fill="white"/>
<rect width="8" height="8" transform="translate(544 428) rotate(90)" fill="white" fill-opacity="0.01" style="mix-blend-mode:multiply"/>
<circle cx="540" cy="432" r="3.5" transform="rotate(-180 540 432)" fill="white" fill-opacity="0.01" style="mix-blend-mode:multiply"/>
<circle cx="540" cy="432" r="3.5" transform="rotate(-180 540 432)" stroke="black"/>
<path d="M540 435C538.343 435 537 433.657 537 432C537 430.343 538.343 429 540 429C541.657 429 543 430.343 543 432C543 433.657 541.657 435 540 435Z" fill="white"/>
<rect x="110.5" y="98.5" width="149" height="47" fill="white"/>
<rect x="110.5" y="98.5" width="149" height="47" stroke="black"/>
<rect x="111" y="99" width="148" height="46" fill="white"/>
<rect x="111" y="99" width="148" height="46" fill="#F4F4F4"/>
<g clip-path="url(#clip5_107_5632)">
<path d="M181.084 127L178.298 122.576L176.996 124.116V127H175.148V117.228H176.996V122.044H177.066L178.452 120.21L180.874 117.228H183.002L179.6 121.302L183.282 127H181.084ZM186.34 127.168C184.856 127.168 184.016 126.314 184.016 125.012C184.016 123.514 185.15 122.772 187.138 122.772H188.384V122.24C188.384 121.428 187.978 120.952 187.026 120.952C186.186 120.952 185.71 121.372 185.36 121.876L184.296 120.924C184.828 120.084 185.682 119.524 187.152 119.524C189.126 119.524 190.176 120.462 190.176 122.128V125.572H190.904V127H189.91C189.14 127 188.664 126.496 188.552 125.74H188.468C188.23 126.678 187.432 127.168 186.34 127.168ZM186.942 125.866C187.74 125.866 188.384 125.502 188.384 124.816V123.85H187.236C186.298 123.85 185.836 124.172 185.836 124.746V124.984C185.836 125.572 186.242 125.866 186.942 125.866ZM192.878 127V121.106H191.8V119.692H192.878V118.642C192.878 117.354 193.578 116.64 194.894 116.64H196.168V118.068H194.67V119.692H196.168V121.106H194.67V127H192.878ZM197.569 127V116.64H199.361V122.884H199.431L200.397 121.568L202.035 119.692H204.065L201.545 122.52L204.331 127H202.203L200.327 123.724L199.361 124.774V127H197.569ZM207.382 127.168C205.898 127.168 205.058 126.314 205.058 125.012C205.058 123.514 206.192 122.772 208.18 122.772H209.426V122.24C209.426 121.428 209.02 120.952 208.068 120.952C207.228 120.952 206.752 121.372 206.402 121.876L205.338 120.924C205.87 120.084 206.724 119.524 208.194 119.524C210.168 119.524 211.218 120.462 211.218 122.128V125.572H211.946V127H210.952C210.182 127 209.706 126.496 209.594 125.74H209.51C209.272 126.678 208.474 127.168 207.382 127.168ZM207.984 125.866C208.782 125.866 209.426 125.502 209.426 124.816V123.85H208.278C207.34 123.85 206.878 124.172 206.878 124.746V124.984C206.878 125.572 207.284 125.866 207.984 125.866Z" fill="black"/>
<path d="M110 98H158V146H110V98Z" fill="white"/>
<path d="M110 98H158V146H110V98Z" fill="#F4F4F4"/>
<path d="M110.5 98.5V145.5H157.5V98.5H110.5Z" stroke="black"/>
</g>
<path d="M137.825 123.293C136.877 123.293 136.027 123.707 135.444 124.359L133.952 123.318C134.111 122.888 134.202 122.427 134.202 121.944C134.202 121.469 134.114 121.016 133.961 120.592L135.449 119.563C136.031 120.211 136.88 120.623 137.825 120.623C139.576 120.623 141 119.22 141 117.494C141 115.769 139.576 114.366 137.825 114.366C136.075 114.366 134.65 115.769 134.65 117.494C134.65 117.803 134.698 118.101 134.783 118.383L133.293 119.413C132.671 118.653 131.775 118.121 130.754 117.959V116.19C132.192 115.892 133.276 114.633 133.276 113.129C133.276 111.403 131.851 110 130.101 110C128.35 110 126.926 111.403 126.926 113.129C126.926 114.613 127.981 115.857 129.391 116.176V117.968C127.467 118.301 126 119.955 126 121.944C126 123.943 127.482 125.603 129.419 125.925V127.817C127.995 128.126 126.926 129.377 126.926 130.871C126.926 132.597 128.35 134 130.101 134C131.851 134 133.276 132.597 133.276 130.871C133.276 129.377 132.206 128.126 130.782 127.817V125.925C131.763 125.762 132.65 125.253 133.278 124.494L134.78 125.542C134.697 125.821 134.65 126.116 134.65 126.422C134.65 128.147 136.075 129.55 137.825 129.55C139.576 129.55 141 128.147 141 126.422C141 124.696 139.576 123.293 137.825 123.293ZM137.825 115.977C138.674 115.977 139.364 116.658 139.364 117.494C139.364 118.331 138.674 119.011 137.825 119.011C136.976 119.011 136.286 118.331 136.286 117.494C136.286 116.658 136.976 115.977 137.825 115.977ZM128.561 113.129C128.561 112.292 129.252 111.612 130.101 111.612C130.95 111.612 131.64 112.292 131.64 113.129C131.64 113.965 130.95 114.646 130.101 114.646C129.252 114.646 128.561 113.965 128.561 113.129ZM131.64 130.871C131.64 131.708 130.95 132.388 130.101 132.388C129.252 132.388 128.561 131.708 128.561 130.871C128.561 130.035 129.252 129.354 130.101 129.354C130.95 129.354 131.64 130.035 131.64 130.871ZM130.101 124.06C128.917 124.06 127.954 123.111 127.954 121.944C127.954 120.777 128.917 119.828 130.101 119.828C131.285 119.828 132.248 120.777 132.248 121.944C132.248 123.111 131.285 124.06 130.101 124.06ZM137.825 127.939C136.976 127.939 136.286 127.258 136.286 126.422C136.286 125.585 136.976 124.905 137.825 124.905C138.674 124.905 139.364 125.585 139.364 126.422C139.364 127.258 138.674 127.939 137.825 127.939Z" fill="#231F20"/>
<rect x="110.5" y="226.5" width="149" height="47" fill="white"/>
<rect x="110.5" y="226.5" width="149" height="47" stroke="black"/>
<rect x="111" y="227" width="148" height="46" fill="white"/>
<rect x="111" y="227" width="148" height="46" fill="#F4F4F4"/>
<g clip-path="url(#clip6_107_5632)">
<path d="M181.084 255L178.298 250.576L176.996 252.116V255H175.148V245.228H176.996V250.044H177.066L178.452 248.21L180.874 245.228H183.002L179.6 249.302L183.282 255H181.084ZM186.34 255.168C184.856 255.168 184.016 254.314 184.016 253.012C184.016 251.514 185.15 250.772 187.138 250.772H188.384V250.24C188.384 249.428 187.978 248.952 187.026 248.952C186.186 248.952 185.71 249.372 185.36 249.876L184.296 248.924C184.828 248.084 185.682 247.524 187.152 247.524C189.126 247.524 190.176 248.462 190.176 250.128V253.572H190.904V255H189.91C189.14 255 188.664 254.496 188.552 253.74H188.468C188.23 254.678 187.432 255.168 186.34 255.168ZM186.942 253.866C187.74 253.866 188.384 253.502 188.384 252.816V251.85H187.236C186.298 251.85 185.836 252.172 185.836 252.746V252.984C185.836 253.572 186.242 253.866 186.942 253.866ZM192.878 255V249.106H191.8V247.692H192.878V246.642C192.878 245.354 193.578 244.64 194.894 244.64H196.168V246.068H194.67V247.692H196.168V249.106H194.67V255H192.878ZM197.569 255V244.64H199.361V250.884H199.431L200.397 249.568L202.035 247.692H204.065L201.545 250.52L204.331 255H202.203L200.327 251.724L199.361 252.774V255H197.569ZM207.382 255.168C205.898 255.168 205.058 254.314 205.058 253.012C205.058 251.514 206.192 250.772 208.18 250.772H209.426V250.24C209.426 249.428 209.02 248.952 208.068 248.952C207.228 248.952 206.752 249.372 206.402 249.876L205.338 248.924C205.87 248.084 206.724 247.524 208.194 247.524C210.168 247.524 211.218 248.462 211.218 250.128V253.572H211.946V255H210.952C210.182 255 209.706 254.496 209.594 253.74H209.51C209.272 254.678 208.474 255.168 207.382 255.168ZM207.984 253.866C208.782 253.866 209.426 253.502 209.426 252.816V251.85H208.278C207.34 251.85 206.878 252.172 206.878 252.746V252.984C206.878 253.572 207.284 253.866 207.984 253.866Z" fill="black"/>
<path d="M110 226H158V274H110V226Z" fill="white"/>
<path d="M110 226H158V274H110V226Z" fill="#F4F4F4"/>
<path d="M110.5 226.5V273.5H157.5V226.5H110.5Z" stroke="black"/>
</g>
<path d="M137.825 251.293C136.877 251.293 136.027 251.707 135.444 252.359L133.952 251.318C134.111 250.888 134.202 250.427 134.202 249.944C134.202 249.469 134.114 249.016 133.961 248.592L135.449 247.563C136.031 248.211 136.88 248.623 137.825 248.623C139.576 248.623 141 247.22 141 245.494C141 243.769 139.576 242.366 137.825 242.366C136.075 242.366 134.65 243.769 134.65 245.494C134.65 245.803 134.698 246.101 134.783 246.383L133.293 247.413C132.671 246.653 131.775 246.121 130.754 245.959V244.19C132.192 243.892 133.276 242.633 133.276 241.129C133.276 239.403 131.851 238 130.101 238C128.35 238 126.926 239.403 126.926 241.129C126.926 242.613 127.981 243.857 129.391 244.176V245.968C127.467 246.301 126 247.955 126 249.944C126 251.943 127.482 253.603 129.419 253.925V255.817C127.995 256.126 126.926 257.377 126.926 258.871C126.926 260.597 128.35 262 130.101 262C131.851 262 133.276 260.597 133.276 258.871C133.276 257.377 132.206 256.126 130.782 255.817V253.925C131.763 253.762 132.65 253.253 133.278 252.494L134.78 253.542C134.697 253.821 134.65 254.116 134.65 254.422C134.65 256.147 136.075 257.55 137.825 257.55C139.576 257.55 141 256.147 141 254.422C141 252.696 139.576 251.293 137.825 251.293ZM137.825 243.977C138.674 243.977 139.364 244.658 139.364 245.494C139.364 246.331 138.674 247.011 137.825 247.011C136.976 247.011 136.286 246.331 136.286 245.494C136.286 244.658 136.976 243.977 137.825 243.977ZM128.561 241.129C128.561 240.292 129.252 239.612 130.101 239.612C130.95 239.612 131.64 240.292 131.64 241.129C131.64 241.965 130.95 242.646 130.101 242.646C129.252 242.646 128.561 241.965 128.561 241.129ZM131.64 258.871C131.64 259.708 130.95 260.388 130.101 260.388C129.252 260.388 128.561 259.708 128.561 258.871C128.561 258.035 129.252 257.354 130.101 257.354C130.95 257.354 131.64 258.035 131.64 258.871ZM130.101 252.06C128.917 252.06 127.954 251.111 127.954 249.944C127.954 248.777 128.917 247.828 130.101 247.828C131.285 247.828 132.248 248.777 132.248 249.944C132.248 251.111 131.285 252.06 130.101 252.06ZM137.825 255.939C136.976 255.939 136.286 255.258 136.286 254.422C136.286 253.585 136.976 252.905 137.825 252.905C138.674 252.905 139.364 253.585 139.364 254.422C139.364 255.258 138.674 255.939 137.825 255.939Z" fill="#231F20"/>
<rect x="110.5" y="354.5" width="149" height="47" fill="white"/>
<rect x="110.5" y="354.5" width="149" height="47" stroke="black"/>
<rect x="111" y="355" width="148" height="46" fill="white"/>
<rect x="111" y="355" width="148" height="46" fill="#F4F4F4"/>
<g clip-path="url(#clip7_107_5632)">
<path d="M181.084 383L178.298 378.576L176.996 380.116V383H175.148V373.228H176.996V378.044H177.066L178.452 376.21L180.874 373.228H183.002L179.6 377.302L183.282 383H181.084ZM186.34 383.168C184.856 383.168 184.016 382.314 184.016 381.012C184.016 379.514 185.15 378.772 187.138 378.772H188.384V378.24C188.384 377.428 187.978 376.952 187.026 376.952C186.186 376.952 185.71 377.372 185.36 377.876L184.296 376.924C184.828 376.084 185.682 375.524 187.152 375.524C189.126 375.524 190.176 376.462 190.176 378.128V381.572H190.904V383H189.91C189.14 383 188.664 382.496 188.552 381.74H188.468C188.23 382.678 187.432 383.168 186.34 383.168ZM186.942 381.866C187.74 381.866 188.384 381.502 188.384 380.816V379.85H187.236C186.298 379.85 185.836 380.172 185.836 380.746V380.984C185.836 381.572 186.242 381.866 186.942 381.866ZM192.878 383V377.106H191.8V375.692H192.878V374.642C192.878 373.354 193.578 372.64 194.894 372.64H196.168V374.068H194.67V375.692H196.168V377.106H194.67V383H192.878ZM197.569 383V372.64H199.361V378.884H199.431L200.397 377.568L202.035 375.692H204.065L201.545 378.52L204.331 383H202.203L200.327 379.724L199.361 380.774V383H197.569ZM207.382 383.168C205.898 383.168 205.058 382.314 205.058 381.012C205.058 379.514 206.192 378.772 208.18 378.772H209.426V378.24C209.426 377.428 209.02 376.952 208.068 376.952C207.228 376.952 206.752 377.372 206.402 377.876L205.338 376.924C205.87 376.084 206.724 375.524 208.194 375.524C210.168 375.524 211.218 376.462 211.218 378.128V381.572H211.946V383H210.952C210.182 383 209.706 382.496 209.594 381.74H209.51C209.272 382.678 208.474 383.168 207.382 383.168ZM207.984 381.866C208.782 381.866 209.426 381.502 209.426 380.816V379.85H208.278C207.34 379.85 206.878 380.172 206.878 380.746V380.984C206.878 381.572 207.284 381.866 207.984 381.866Z" fill="black"/>
<path d="M110 354H158V402H110V354Z" fill="white"/>
<path d="M110 354H158V402H110V354Z" fill="#F4F4F4"/>
<path d="M110.5 354.5V401.5H157.5V354.5H110.5Z" stroke="black"/>
</g>
<path d="M137.825 379.293C136.877 379.293 136.027 379.707 135.444 380.359L133.952 379.318C134.111 378.888 134.202 378.427 134.202 377.944C134.202 377.469 134.114 377.016 133.961 376.592L135.449 375.563C136.031 376.211 136.88 376.623 137.825 376.623C139.576 376.623 141 375.22 141 373.494C141 371.769 139.576 370.366 137.825 370.366C136.075 370.366 134.65 371.769 134.65 373.494C134.65 373.803 134.698 374.101 134.783 374.383L133.293 375.413C132.671 374.653 131.775 374.121 130.754 373.959V372.19C132.192 371.892 133.276 370.633 133.276 369.129C133.276 367.403 131.851 366 130.101 366C128.35 366 126.926 367.403 126.926 369.129C126.926 370.613 127.981 371.857 129.391 372.176V373.968C127.467 374.301 126 375.955 126 377.944C126 379.943 127.482 381.603 129.419 381.925V383.817C127.995 384.126 126.926 385.377 126.926 386.871C126.926 388.597 128.35 390 130.101 390C131.851 390 133.276 388.597 133.276 386.871C133.276 385.377 132.206 384.126 130.782 383.817V381.925C131.763 381.762 132.65 381.253 133.278 380.494L134.78 381.542C134.697 381.821 134.65 382.116 134.65 382.422C134.65 384.147 136.075 385.55 137.825 385.55C139.576 385.55 141 384.147 141 382.422C141 380.696 139.576 379.293 137.825 379.293ZM137.825 371.977C138.674 371.977 139.364 372.658 139.364 373.494C139.364 374.331 138.674 375.011 137.825 375.011C136.976 375.011 136.286 374.331 136.286 373.494C136.286 372.658 136.976 371.977 137.825 371.977ZM128.561 369.129C128.561 368.292 129.252 367.612 130.101 367.612C130.95 367.612 131.64 368.292 131.64 369.129C131.64 369.965 130.95 370.646 130.101 370.646C129.252 370.646 128.561 369.965 128.561 369.129ZM131.64 386.871C131.64 387.708 130.95 388.388 130.101 388.388C129.252 388.388 128.561 387.708 128.561 386.871C128.561 386.035 129.252 385.354 130.101 385.354C130.95 385.354 131.64 386.035 131.64 386.871ZM130.101 380.06C128.917 380.06 127.954 379.111 127.954 377.944C127.954 376.777 128.917 375.828 130.101 375.828C131.285 375.828 132.248 376.777 132.248 377.944C132.248 379.111 131.285 380.06 130.101 380.06ZM137.825 383.939C136.976 383.939 136.286 383.258 136.286 382.422C136.286 381.585 136.976 380.905 137.825 380.905C138.674 380.905 139.364 381.585 139.364 382.422C139.364 383.258 138.674 383.939 137.825 383.939Z" fill="#231F20"/>
<rect width="8" height="8" transform="translate(264 118) rotate(90)" fill="white" fill-opacity="0.01" style="mix-blend-mode:multiply"/>
<circle cx="260" cy="122" r="3.5" transform="rotate(-180 260 122)" fill="white" fill-opacity="0.01" style="mix-blend-mode:multiply"/>
<circle cx="260" cy="122" r="3.5" transform="rotate(-180 260 122)" stroke="black"/>
<path d="M260 125C258.343 125 257 123.657 257 122C257 120.343 258.343 119 260 119C261.657 119 263 120.343 263 122C263 123.657 261.657 125 260 125Z" fill="white"/>
<rect width="8" height="8" transform="translate(264 246) rotate(90)" fill="white" fill-opacity="0.01" style="mix-blend-mode:multiply"/>
<circle cx="260" cy="250" r="3.5" transform="rotate(-180 260 250)" fill="white" fill-opacity="0.01" style="mix-blend-mode:multiply"/>
<circle cx="260" cy="250" r="3.5" transform="rotate(-180 260 250)" stroke="black"/>
<path d="M260 253C258.343 253 257 251.657 257 250C257 248.343 258.343 247 260 247C261.657 247 263 248.343 263 250C263 251.657 261.657 253 260 253Z" fill="white"/>
<rect width="8" height="8" transform="translate(264 374) rotate(90)" fill="white" fill-opacity="0.01" style="mix-blend-mode:multiply"/>
<circle cx="260" cy="378" r="3.5" transform="rotate(-180 260 378)" fill="white" fill-opacity="0.01" style="mix-blend-mode:multiply"/>
<circle cx="260" cy="378" r="3.5" transform="rotate(-180 260 378)" stroke="black"/>
<path d="M260 381C258.343 381 257 379.657 257 378C257 376.343 258.343 375 260 375C261.657 375 263 376.343 263 378C263 379.657 261.657 381 260 381Z" fill="white"/>
<defs>
<clipPath id="clip0_107_5632">
<rect width="150" height="48" fill="white" transform="translate(540 44)"/>
</clipPath>
<clipPath id="clip1_107_5632">
<rect width="150" height="48" fill="white" transform="translate(540 135)"/>
</clipPath>
<clipPath id="clip2_107_5632">
<rect width="150" height="48" fill="white" transform="translate(540 226)"/>
</clipPath>
<clipPath id="clip3_107_5632">
<rect width="150" height="48" fill="white" transform="translate(540 317)"/>
</clipPath>
<clipPath id="clip4_107_5632">
<rect width="150" height="48" fill="white" transform="translate(540 408)"/>
</clipPath>
<clipPath id="clip5_107_5632">
<rect width="150" height="48" fill="white" transform="translate(110 98)"/>
</clipPath>
<clipPath id="clip6_107_5632">
<rect width="150" height="48" fill="white" transform="translate(110 226)"/>
</clipPath>
<clipPath id="clip7_107_5632">
<rect width="150" height="48" fill="white" transform="translate(110 354)"/>
</clipPath>
</defs>
</svg>
